<svg width="28" height="28" viewBox="0 0 28 28" fill="none" xmlns="http://www.w3.org/2000/svg">
<mask id="mask0_376_17815" style="mask-type:alpha" maskUnits="userSpaceOnUse" x="0" y="0" width="28" height="28">
<rect width="28" height="28" fill="#D9D9D9"/>
</mask>
<g mask="url(#mask0_376_17815)">
<circle cx="14.0003" cy="14.0052" r="8.33333" stroke="black" stroke-width="2"/>
<path d="M9.94434 12.3564C10.2467 12.3564 10.5215 12.5865 10.5215 12.9102C10.5214 13.0087 10.4939 13.0963 10.4531 13.1699C10.3142 13.4204 10.2363 13.703 10.2363 14C10.2363 15.021 11.1692 15.8965 12.3682 15.8965H15.0547V15.5068C15.0547 15.3953 15.1067 15.2965 15.1895 15.2295L15.1885 15.2285C15.2925 15.1348 15.4375 15.1116 15.5635 15.1523L15.6162 15.1729L15.6211 15.1758L17.4189 16.1123C17.5394 16.1726 17.6218 16.2984 17.6172 16.4414H17.6182C17.6182 16.4427 17.6172 16.444 17.6172 16.4453C17.6168 16.453 17.618 16.4609 17.6172 16.4688L17.6143 16.4678C17.6056 16.5834 17.5438 16.7099 17.415 16.7744L17.4141 16.7734L15.6211 17.707L15.6201 17.7061C15.4757 17.7822 15.3093 17.7522 15.1992 17.6641L15.2002 17.6621C15.1333 17.6095 15.0547 17.5125 15.0547 17.376V16.9863H12.3682C10.5883 16.9863 9.08301 15.6645 9.08301 14C9.08301 13.5396 9.20208 13.0994 9.41113 12.7041C9.49967 12.4922 9.70802 12.3566 9.94434 12.3564ZM12.626 10.2939C12.768 10.2188 12.9299 10.2484 13.04 10.333L13.041 10.332L13.042 10.334C13.0433 10.335 13.0456 10.3349 13.0469 10.3359L13.0459 10.3369C13.113 10.3894 13.1923 10.4869 13.1924 10.624V11.0137H15.6357C17.4202 11.0137 18.9205 12.3353 18.916 14.0039C18.916 14.2592 18.8801 14.5053 18.8135 14.7412L18.7979 14.793C18.7964 14.7982 18.7955 14.8035 18.7939 14.8086L18.7617 14.9238H18.7412C18.6396 15.0943 18.4502 15.2051 18.2412 15.2051C17.939 15.205 17.665 14.9759 17.665 14.6523C17.6651 14.5773 17.6853 14.5122 17.6953 14.4805C17.7433 14.3292 17.7676 14.1691 17.7676 14C17.7676 12.979 16.8347 12.1035 15.6357 12.1035H13.1924V12.4971C13.1924 12.6085 13.1393 12.7064 13.0566 12.7734L13.0586 12.7754C12.9398 12.8824 12.7672 12.8981 12.6309 12.8311L12.626 12.8291L10.8242 11.8945L10.8203 11.8926C10.7082 11.8319 10.6198 11.7115 10.625 11.5625H10.624C10.624 11.5609 10.624 11.5592 10.624 11.5576C10.6244 11.5502 10.6242 11.5427 10.625 11.5352H10.627C10.6359 11.4209 10.6975 11.2963 10.8232 11.2314L12.626 10.293V10.2939Z" fill="#0B4CA1" stroke="#0B4CA1" stroke-width="0.5"/>
</g>
</svg>
