<svg width="60" height="60" viewBox="0 0 60 60" fill="none" xmlns="http://www.w3.org/2000/svg">
<path d="M0 24C0 10.7452 10.7452 0 24 0H36C49.2548 0 60 10.7452 60 24V36C60 49.2548 49.2548 60 36 60H24C10.7452 60 0 49.2548 0 36V24Z" fill="#0B4CA1"/>
<path d="M29.1667 25.8333C29.3877 25.8333 29.5996 25.9211 29.7559 26.0774C29.9122 26.2337 30 26.4457 30 26.6667V28.3333H31.6667C31.8708 28.3334 32.0678 28.4083 32.2203 28.5439C32.3728 28.6796 32.4703 28.8665 32.4942 29.0692L32.5 29.1667C32.5 29.3877 32.4122 29.5996 32.2559 29.7559C32.0996 29.9122 31.8877 30 31.6667 30H30V31.6667C30 31.8708 29.925 32.0678 29.7894 32.2203C29.6538 32.3728 29.4669 32.4703 29.2642 32.4942L29.1667 32.5C28.9457 32.5 28.7337 32.4122 28.5774 32.2559C28.4211 32.0996 28.3333 31.8877 28.3333 31.6667V30H26.6667C26.4626 30 26.2656 29.925 26.113 29.7894C25.9605 29.6538 25.863 29.4669 25.8392 29.2642L25.8333 29.1667C25.8333 28.9457 25.9211 28.7337 26.0774 28.5774C26.2337 28.4211 26.4457 28.3333 26.6667 28.3333H28.3333V26.6667C28.3334 26.4626 28.4083 26.2656 28.5439 26.113C28.6796 25.9605 28.8665 25.863 29.0692 25.8392L29.1667 25.8333ZM29.1667 23.3333C28.2116 23.3333 27.271 23.5678 26.4278 24.0163C25.5845 24.4647 24.8642 25.1134 24.3302 25.9053C23.7962 26.6972 23.4648 27.608 23.3651 28.5579C23.2655 29.5078 23.4006 30.4677 23.7586 31.3532C24.1166 32.2386 24.6865 33.0227 25.4184 33.6364C26.1502 34.2501 27.0216 34.6747 27.9559 34.873C28.8902 35.0712 29.8589 35.037 30.7769 34.7733C31.6949 34.5097 32.5341 34.0246 33.2208 33.3608L33.285 33.2858C33.3083 33.2624 33.3331 33.2404 33.3592 33.22C34.1548 32.3966 34.6904 31.3573 34.8995 30.2315C35.1085 29.1058 34.9816 27.9434 34.5346 26.8893C34.0876 25.8352 33.3402 24.9359 32.3857 24.3036C31.4312 23.6713 30.3116 23.3338 29.1667 23.3333ZM29.1667 21.6667C31.1558 21.6667 33.0634 22.4568 34.47 23.8634C35.8765 25.2699 36.6667 27.1775 36.6667 29.1667C36.6696 30.8683 36.091 32.5198 35.0267 33.8475L38.0892 36.9108C38.1665 36.9882 38.2279 37.0801 38.2698 37.1811C38.3117 37.2822 38.3332 37.3906 38.3332 37.5C38.3332 37.6094 38.3117 37.7178 38.2698 37.8189C38.2279 37.9199 38.1665 38.0118 38.0892 38.0892C38.0118 38.1665 37.9199 38.2279 37.8189 38.2698C37.7178 38.3117 37.6094 38.3332 37.5 38.3332C37.3906 38.3332 37.2822 38.3117 37.1811 38.2698C37.0801 38.2279 36.9882 38.1665 36.9108 38.0892L33.8475 35.0267C32.5198 36.091 30.8683 36.6696 29.1667 36.6667C25.0242 36.6667 21.6667 33.3092 21.6667 29.1667C21.6667 25.0242 25.0242 21.6667 29.1667 21.6667Z" fill="white"/>
</svg>
