<svg width="80" height="80" viewBox="0 0 80 80" fill="none" xmlns="http://www.w3.org/2000/svg">
<circle cx="40" cy="40" r="35.5" stroke="#0B4CA1" stroke-width="3"/>
<path d="M60.8285 53.9093C61.6586 53.9093 62.334 54.5142 62.334 55.2598C62.334 56.0054 61.6586 56.6082 60.8285 56.6082H56.3162V59.4437C56.3162 60.1116 55.6429 60.6576 54.8107 60.6576C53.9785 60.6576 53.3073 60.1116 53.3073 59.4437V56.6082H48.795C47.9649 56.6082 47.2916 56.0054 47.2916 55.2598C47.2916 54.5142 47.9649 53.9093 48.7971 53.9093H53.3073V51.2104H48.795C47.9649 51.2104 47.2916 50.6076 47.2916 49.862C47.2916 49.1164 47.9649 48.5136 48.7971 48.5136H51.8813L48.9978 43.6787C48.9108 43.5328 48.8543 43.3706 48.8316 43.2021C48.8089 43.0335 48.8207 42.8621 48.866 42.6982C48.9114 42.5344 48.9895 42.3815 49.0956 42.2489C49.2016 42.1163 49.3334 42.0068 49.4829 41.927C49.7869 41.7565 50.1445 41.71 50.4816 41.7972C50.8188 41.8844 51.1096 42.0986 51.2937 42.3954L54.6079 47.9486C54.7124 48.1229 54.771 48.3162 54.7814 48.5136H54.7961C54.8078 48.3127 54.8688 48.1179 54.9738 47.9465L58.3403 42.3954C58.4282 42.247 58.545 42.1179 58.6837 42.0158C58.8223 41.9137 58.98 41.8406 59.1474 41.801C59.4953 41.7121 59.8637 41.757 60.1803 41.927C60.8285 42.3051 61.046 43.0675 60.6696 43.6787L57.7422 48.5136H60.8306C61.6607 48.5136 62.3361 49.1164 62.3361 49.862C62.3361 50.6076 61.6607 51.2104 60.8306 51.2104H56.3183V53.9093H60.8285ZM19.9543 44.4894C19.5133 44.4888 19.09 44.6642 18.7775 44.9768C18.4651 45.2895 18.2889 45.714 18.2878 46.1571V59.3281C18.3092 59.7571 18.4939 60.1613 18.8037 60.4573C19.1135 60.7532 19.5247 60.9183 19.9522 60.9183C20.3798 60.9183 20.791 60.7532 21.1007 60.4573C21.4105 60.1613 21.5952 59.7571 21.6166 59.3281V46.155C21.6128 45.7137 21.4363 45.2916 21.1253 44.98C20.8142 44.6684 20.3936 44.4921 19.9543 44.4894ZM28.291 36.3003C27.8501 36.3008 27.4274 36.4768 27.1154 36.7898C26.8035 37.1028 26.6277 37.5271 26.6266 37.97V59.3386C26.6419 59.7721 26.824 60.1826 27.1347 60.4838C27.4454 60.785 27.8603 60.9533 28.292 60.9533C28.7238 60.9533 29.1387 60.785 29.4494 60.4838C29.76 60.1826 29.9422 59.7721 29.9575 59.3386V37.97C29.9572 37.7505 29.9139 37.5331 29.83 37.3304C29.7461 37.1276 29.6233 36.9435 29.4685 36.7885C29.3138 36.6334 29.1301 36.5105 28.9281 36.4267C28.7261 36.343 28.5096 36.3 28.291 36.3003ZM34.4447 46.1571V59.3281C34.4447 59.7715 34.6201 60.1968 34.9322 60.5103C35.2443 60.8239 35.6677 61 36.1091 61C36.5505 61 36.9739 60.8239 37.286 60.5103C37.5982 60.1968 37.7735 59.7715 37.7735 59.3281V46.1571C37.7735 45.7136 37.5982 45.2884 37.286 44.9749C36.9739 44.6613 36.5505 44.4852 36.1091 44.4852C35.6677 44.4852 35.2443 44.6613 34.9322 44.9749C34.6201 45.2884 34.4447 45.7136 34.4447 46.1571ZM61.9095 20.7432L53.8635 19.0293C53.5083 18.9544 53.138 19.0243 52.8341 19.2236C52.5302 19.4229 52.3176 19.7353 52.243 20.0921C52.1684 20.4489 52.238 20.8208 52.4364 21.1261C52.6348 21.4313 52.9458 21.6449 53.301 21.7199L57.5833 22.6314L45.462 32.2172L35.2832 23.6752C34.9954 23.3795 34.6092 23.2006 34.1985 23.1727C33.7877 23.1449 33.3811 23.2699 33.0563 23.524L17.6313 35.729C17.2865 36.0038 17.0638 36.4044 17.0117 36.8434C16.9596 37.2825 17.0824 37.7244 17.3532 38.0729C17.6282 38.4193 18.0282 38.6427 18.4663 38.6947C18.9044 38.7466 19.3452 38.6228 19.693 38.3502L34.0474 27.0001L44.0987 35.4412C44.4219 35.7091 44.8322 35.8475 45.2508 35.8298C45.4961 35.8892 45.7516 35.8918 45.998 35.8372C46.2443 35.7826 46.4751 35.6723 46.6727 35.5147L59.5426 25.3366L58.5828 29.8754C58.5446 30.0523 58.5418 30.235 58.5746 30.413C58.6074 30.591 58.675 30.7607 58.7737 30.9121C58.8723 31.0636 59 31.1939 59.1492 31.2953C59.2985 31.3968 59.4663 31.4674 59.6429 31.5031C59.8191 31.5406 60.0009 31.5428 60.1779 31.5096C60.355 31.4763 60.5237 31.4083 60.6745 31.3093C60.8252 31.2104 60.9551 31.0825 61.0565 30.933C61.1579 30.7835 61.229 30.6154 61.2655 30.4383L62.9717 22.3689C63.0449 22.0122 62.9747 21.641 62.7765 21.3361C62.5783 21.0312 62.2682 20.8173 61.9137 20.7411H61.9095V20.7432Z" fill="#0B4CA1"/>
</svg>
