<svg width="42" height="42" viewBox="0 0 42 42" fill="none" xmlns="http://www.w3.org/2000/svg">
<path d="M23.625 16.5371C25.8563 16.5371 27.5625 14.8309 27.5625 12.5996C27.5625 10.3684 25.8563 8.66211 23.625 8.66211C21.3937 8.66211 19.6875 10.3684 19.6875 12.5996C19.6875 14.8309 21.3937 16.5371 23.625 16.5371ZM23.4937 11.1559C24.3469 11.1559 25.1344 11.9434 25.1344 12.7965C25.1344 13.6496 24.3469 14.4371 23.4937 14.4371C22.6406 14.4371 21.8531 13.6496 21.8531 12.7965C21.8531 11.9434 22.6406 11.1559 23.4937 11.1559Z" fill="white"/>
<path d="M38.2609 7.87422H35.5703C34.7828 7.87422 34.3234 8.46484 34.3234 9.12109C34.3234 9.71172 34.9141 10.368 35.5703 10.368H36.9484V20.5398L30.5172 18.0461L31.2391 16.8648V16.7992L31.3047 16.7336C32.2891 15.3555 32.8141 13.6492 32.8141 11.8117C32.8141 6.82422 28.6797 2.68984 23.6266 2.68984C18.5734 2.68984 14.3078 6.88984 14.3078 11.8773C14.3078 13.4523 14.7016 14.9617 15.4234 16.143L15.5547 16.4055L10.3047 13.9773V10.4336H11.6828C12.4703 10.4336 12.9297 9.84297 12.9297 9.18672C12.9297 8.53047 12.4703 7.87422 11.6828 7.87422H10.3047V6.49609C10.3047 4.33047 8.53281 2.55859 6.36719 2.55859C4.13594 2.55859 2.42969 4.26484 2.42969 6.49609V35.568C2.42969 37.7336 4.20156 39.5055 6.36719 39.5055C8.59844 39.5055 10.3047 37.7992 10.3047 35.568V34.1242H38.2609C39.0484 34.1242 39.5078 33.5336 39.5078 32.8773V9.05547C39.5078 8.46484 38.9172 7.87422 38.2609 7.87422ZM20.5422 23.2305L14.4391 31.5648H10.3703V16.5367L18.5078 20.4086L18.5734 20.4742L20.5422 23.2305ZM23.6266 5.11797C27.3672 5.11797 30.3859 8.13672 30.3859 11.7461C30.3859 12.7961 30.1891 13.7148 29.6641 14.6992V14.8961C29.5984 14.9617 29.5328 15.0273 29.5328 15.1586V15.2242L29.4016 15.5523C29.2703 15.7492 27.4328 18.4398 23.8891 23.4273L23.6266 23.2305L18.1141 15.8805L17.5891 15.093V14.6992C17.1297 13.7148 16.8672 12.7961 16.8672 11.7461C16.8672 8.00547 19.8203 5.11797 23.6266 5.11797ZM22.0516 25.3305L22.6422 26.0523L23.1672 26.5773H23.2328C23.8234 26.9055 24.5453 26.7086 25.0047 26.118L29.2047 20.0805L37.1453 23.0336V31.4992H17.4578L22.0516 25.3305ZM5.12031 31.8273H5.05469V6.49609C5.05469 5.77422 5.71094 5.11797 6.43281 5.11797C7.15469 5.11797 7.81094 5.77422 7.81094 6.49609V31.893H7.74531C7.48281 31.8273 6.89219 31.6305 6.43281 31.6305C5.97344 31.6305 5.31719 31.7617 5.12031 31.8273ZM6.43281 34.1242C7.15469 34.1242 7.81094 34.7805 7.81094 35.5023C7.81094 36.2242 7.15469 36.8805 6.43281 36.8805C5.71094 36.8805 5.05469 36.2242 5.05469 35.5023C5.05469 34.7805 5.71094 34.1242 6.43281 34.1242Z" fill="white"/>
</svg>
