<svg width="42" height="42" viewBox="0 0 42 42" fill="none" xmlns="http://www.w3.org/2000/svg">
<path d="M3.4238 13.8377C3.4028 11.9897 4.3898 10.2678 5.9858 9.36475L18.4388 2.16175C20.0138 1.23775 21.9668 1.23775 23.5628 2.16175L35.9948 9.36475C37.5908 10.2678 38.5568 11.9898 38.5568 13.7958L38.5778 28.2017C38.5988 30.0287 37.6118 31.7297 35.9948 32.6537L23.5418 39.8568C21.9458 40.7598 19.9928 40.7598 18.4178 39.8568L5.9438 32.6537C4.3688 31.7507 3.3608 30.0287 3.3818 28.2227L3.4238 13.8377ZM5.5528 28.2227V28.2437C5.5528 28.9158 5.95179 29.5877 6.53979 29.9237L19.9718 38.1057C20.5808 38.4417 21.3578 38.4417 21.9458 38.1057L35.3988 29.9028C36.0288 29.5457 36.4068 28.8738 36.4068 28.1807L36.4278 13.7958C36.4278 13.0818 36.0498 12.4307 35.4198 12.0737L21.9668 3.87075C21.3578 3.51375 20.5808 3.53475 19.9928 3.87075L6.5188 12.0737C5.9098 12.4307 5.5528 13.0818 5.5528 13.7958V28.2227Z" fill="white"/>
<path d="M11.0462 13.629L21.0002 19.362L30.9542 13.629C31.7102 13.188 32.6762 13.461 33.0962 14.196C33.5372 14.952 33.2642 15.918 32.5292 16.338L22.5752 22.092V33.726C22.5752 34.587 21.8612 35.301 21.0002 35.301C20.1392 35.301 19.4252 34.587 19.4252 33.726V22.092L9.4712 16.338C8.7152 15.897 8.4632 14.931 8.9042 14.196C9.3242 13.44 10.2902 13.188 11.0462 13.629Z" fill="white"/>
</svg>
