<svg width="22" height="22" viewBox="0 0 22 22" fill="none" xmlns="http://www.w3.org/2000/svg">
<path d="M22 11C22 17.0751 17.0751 22 11 22C4.92487 22 0 17.0751 0 11C0 4.92487 4.92487 0 11 0C17.0751 0 22 4.92487 22 11Z" fill="#0B4CA1"/>
<path d="M6 11.0016C6 10.6921 6.25091 10.4412 6.56042 10.4412H15.795C16.1046 10.4412 16.3555 10.6921 16.3555 11.0016V11.3601C16.3555 11.6696 16.1046 11.9205 15.795 11.9205H6.56042C6.25091 11.9205 6 11.6696 6 11.3601V11.0016Z" fill="white"/>
<path d="M10.994 16.3555C10.6845 16.3555 10.4336 16.1046 10.4336 15.795L10.4336 6.56042C10.4336 6.25091 10.6845 6 10.994 6H11.3525C11.662 6 11.9129 6.25091 11.9129 6.56042L11.9129 15.795C11.9129 16.1046 11.662 16.3555 11.3525 16.3555H10.994Z" fill="white"/>
</svg>
