<svg width="80" height="80" viewBox="0 0 80 80" fill="none" xmlns="http://www.w3.org/2000/svg">
<g clip-path="url(#clip0_562_4930)">
<path d="M61.0385 16.0503H51.8843V5.37261C51.8843 4.94654 51.7035 4.53338 51.3808 4.24933C51.0709 3.95236 50.6319 3.81034 50.2058 3.86199L25.1836 6.35388C23.3023 6.54525 21.5587 7.42733 20.29 8.8296C19.0213 10.2319 18.3175 12.0547 18.3148 13.9458V67.9282H9.16061V61.537C9.93529 61.2143 10.6067 60.6203 11.0973 59.8198C11.8462 58.5945 12.2077 56.8773 12.2077 54.5778C12.2077 52.3571 11.8591 49.8135 11.2523 47.7994C10.9295 46.689 10.5421 45.7852 10.1031 45.1138C9.25099 43.7955 8.29555 43.527 7.63707 43.527C6.97859 43.527 6.02315 43.7968 5.171 45.1138C4.73201 45.7865 4.34467 46.689 4.00898 47.7994C3.41505 49.8135 3.05354 52.3571 3.05354 54.5778C3.05354 56.876 3.42797 58.5932 4.17683 59.8198C4.66746 60.6345 5.32594 61.2143 6.11353 61.537V67.9282H1.53C1.12422 67.9282 0.735055 68.0894 0.448126 68.3763C0.161196 68.6632 0 69.0524 0 69.4582C0 69.8639 0.161196 70.2531 0.448126 70.54C0.735055 70.827 1.12422 70.9882 1.53 70.9882H38.1595C38.5653 70.9882 38.9545 70.827 39.2414 70.54C39.5283 70.2531 39.6895 69.8639 39.6895 69.4582C39.6895 69.0524 39.5283 68.6632 39.2414 68.3763C38.9545 68.0894 38.5653 67.9282 38.1595 67.9282H21.3748V13.9458C21.3683 12.8103 21.7877 11.7137 22.5502 10.8723C23.3127 10.0309 24.3629 9.50593 25.4935 9.40096L48.8372 7.064V34.3715C48.8372 35.2108 49.5202 35.8951 50.3608 35.8951C51.2013 35.8951 51.8843 35.2108 51.8843 34.3715V19.1103H61.0385V33.0804C61.0385 33.4863 61.1997 33.8757 61.4868 34.1627C61.7738 34.4498 62.1631 34.611 62.5691 34.611C62.975 34.611 63.3644 34.4498 63.6514 34.1627C63.9385 33.8757 64.0997 33.4863 64.0997 33.0804V19.1103C64.0997 17.4189 62.7298 16.0632 61.0385 16.0503ZM7.6332 58.7753C6.22586 58.7753 6.10966 55.5733 6.10966 54.5791C6.12257 52.8102 6.34206 51.0285 6.76814 49.3113C7.07801 48.0847 7.40079 47.3487 7.6332 46.9227C7.87851 47.3487 8.2013 48.0834 8.51117 49.3113C8.93724 51.0285 9.15674 52.8102 9.15674 54.5791C9.15674 55.5733 9.05345 58.7753 7.6332 58.7753Z" fill="#0B4CA1"/>
<path d="M27.4727 16.0547H30.5197V22.1618H27.4727V16.0547ZM33.5759 16.0547H36.6229V22.1618H33.5759V16.0547ZM39.6803 16.0547H42.7274V22.1618H39.6803V16.0547ZM27.4727 25.2101H30.5197V31.3172H27.4727V25.2101ZM33.5759 25.2101H36.6229V31.3172H33.5759V25.2101ZM39.6803 25.2101H42.7274V31.3172H39.6803V25.2101ZM27.4727 34.3656H30.5197V40.4714H27.4727V34.3656ZM33.5759 34.3656H36.6229V40.4714H33.5759V34.3656ZM39.6803 34.3656H42.7274V40.4714H39.6803V34.3656ZM27.4727 43.521H30.5197V49.6268H27.4727V43.521ZM33.5759 43.521H36.6229V49.6268H33.5759V43.521ZM39.6803 43.521H42.7274V49.6268H39.6803V43.521ZM27.4727 52.6739H30.5197V58.781H27.4727V52.6739ZM33.5759 52.6739H36.6229V58.781H33.5759V52.6739ZM54.9377 25.2101H57.9861V31.3172H54.9377V25.2101ZM70.6702 52.2013C69.7909 49.5287 67.352 47.734 64.6264 47.7469C62.2778 47.7469 60.1216 49.0768 59.0099 51.2188C58.4658 52.2697 58.2058 53.4447 58.2556 54.6271C58.3055 55.8095 58.6634 56.9583 59.294 57.9598L57.1752 60.1534L54.4768 57.3517L52.6821 59.2109L55.3819 62.0127L54.4768 62.9423L50.8629 59.2109L49.0695 61.0714L52.6847 64.8028L51.768 65.7324L53.5756 67.5917L61.1029 59.8177C62.2033 60.5794 63.52 60.9657 64.8575 60.9194C66.1949 60.8731 67.4818 60.3967 68.5269 59.5608C70.696 57.832 71.5611 54.874 70.6702 52.2013ZM64.6161 58.2981C62.5115 58.2981 60.7943 56.5163 60.7943 54.3343C60.7943 52.1536 62.5115 50.3834 64.6161 50.3834C66.7335 50.3834 68.4507 52.1523 68.4507 54.3343C68.4507 56.5163 66.7335 58.2981 64.6161 58.2981Z" fill="#0B4CA1"/>
<path d="M60.6913 37.418C50.0019 37.418 41.3242 46.0944 41.3242 56.785C41.3242 67.4756 50.0019 76.1521 60.6913 76.1521C71.3806 76.1521 80.0583 67.4756 80.0583 56.785C80.0583 46.0944 71.3806 37.418 60.6913 37.418ZM72.5555 68.6493C71.0281 70.1837 69.2176 71.4075 67.2244 72.2528C65.1457 73.1308 62.9637 73.5698 60.6913 73.5698C58.4862 73.5762 56.3018 73.1446 54.2648 72.2999C52.2279 71.4552 50.3791 70.2143 48.8257 68.6493C47.2616 67.0955 46.0213 65.2468 45.1769 63.2102C44.3325 61.1736 43.9007 58.9897 43.9065 56.785C43.9 54.5799 44.3317 52.3955 45.1764 50.3586C46.021 48.3217 47.2619 46.4729 48.827 44.9195C50.3807 43.3553 52.2295 42.1151 54.2661 41.2707C56.3026 40.4262 58.4866 39.9944 60.6913 40.0002C62.8964 39.9938 65.0808 40.4254 67.1177 41.2701C69.1546 42.1148 71.0034 43.3557 72.5568 44.9208C74.121 46.4745 75.3612 48.3232 76.2056 50.3598C77.05 52.3964 77.4818 54.5803 77.476 56.785C77.4823 58.9899 77.0506 61.1741 76.2059 63.2107C75.3612 65.2474 74.1204 67.096 72.5555 68.6493Z" fill="#0B4CA1"/>
</g>
<defs>
<clipPath id="clip0_562_4930">
<rect width="80" height="80" fill="white"/>
</clipPath>
</defs>
</svg>
