<svg width="42" height="42" viewBox="0 0 42 42" fill="none" xmlns="http://www.w3.org/2000/svg">
<g clip-path="url(#clip0_562_4637)">
<path d="M26.8534 39.6667H12.2716C12.1154 39.6667 11.9607 39.628 11.8167 39.5527C11.6727 39.4775 11.5424 39.3672 11.4333 39.2285C11.3243 39.0897 11.2388 38.9253 11.1819 38.745C11.125 38.5646 11.0978 38.3719 11.102 38.1783V9.18505C11.1014 8.92426 11.1576 8.66812 11.2646 8.4436C11.3717 8.21909 11.5256 8.03452 11.7102 7.90934L19.0557 2.84518C19.2283 2.73014 19.4212 2.66992 19.6171 2.66992C19.8131 2.66992 20.006 2.73014 20.1786 2.84518L27.4928 7.83203C27.6774 7.9572 27.8314 8.14177 27.9384 8.36629C28.0455 8.5908 28.1016 8.84695 28.1011 9.10773V38.1783C28.1058 38.3803 28.0764 38.5813 28.0147 38.7684C27.9531 38.9555 27.8605 39.1246 27.743 39.2647C27.6255 39.4049 27.4857 39.513 27.3325 39.5822C27.1793 39.6515 27.0161 39.6802 26.8534 39.6667ZM13.4413 36.7673H25.715V9.97753L19.5703 5.78317L13.4413 9.97753V36.7673Z" fill="white"/>
<path d="M41.3058 38.725H31.7568C31.5458 38.725 31.3434 38.6212 31.1942 38.4366C31.0449 38.252 30.9611 38.0017 30.9611 37.7406V25.9285C30.9611 25.7993 30.9817 25.6713 31.0217 25.5518C31.0617 25.4324 31.1203 25.3239 31.1942 25.2325C31.2681 25.1411 31.3558 25.0686 31.4523 25.0191C31.5489 24.9696 31.6523 24.9442 31.7568 24.9442H41.3058C41.4103 24.9442 41.5138 24.9696 41.6103 25.0191C41.7069 25.0686 41.7946 25.1411 41.8685 25.2325C41.9424 25.3239 42.001 25.4324 42.041 25.5518C42.081 25.6713 42.1016 25.7993 42.1016 25.9285V37.7406C42.1016 38.0017 42.0177 38.252 41.8685 38.4366C41.7193 38.6212 41.5169 38.725 41.3058 38.725ZM32.5526 36.7563H40.5101V26.9129H32.5526V36.7563ZM12.1019 39.6699H1.29561C1.13615 39.67 0.978287 39.6305 0.831356 39.5539C0.684425 39.4772 0.551399 39.3649 0.440135 39.2236C0.32887 39.0823 0.241623 38.9149 0.183545 38.7312C0.125466 38.5475 0.0977346 38.3512 0.101987 38.154V15.8489C0.0985091 15.5799 0.154486 15.3149 0.263873 15.0825C0.37326 14.85 0.531902 14.6589 0.72267 14.5299L6.11784 10.8484C6.29396 10.7313 6.49081 10.6699 6.69078 10.6699C6.89075 10.6699 7.0876 10.7313 7.26372 10.8484L12.6589 14.5299C12.8473 14.6574 13.0043 14.8453 13.1136 15.074C13.2228 15.3027 13.2802 15.5636 13.2796 15.8292V38.154C13.2838 38.3496 13.2566 38.5442 13.1995 38.7266C13.1424 38.909 13.0566 39.0756 12.947 39.2166C12.8374 39.3577 12.7063 39.4704 12.5612 39.5482C12.4161 39.626 12.26 39.6674 12.1019 39.6699ZM2.55289 36.7169H10.9082V16.7348L6.69078 13.8605L2.48923 16.7348L2.55289 36.7169Z" fill="white"/>
<path d="M7.26369 33.9097C6.94822 33.9097 6.64567 33.7844 6.42261 33.5613C6.19954 33.3382 6.07422 33.0357 6.07422 32.7202V23.3789C6.07428 23.0635 6.19962 22.761 6.42268 22.538C6.64575 22.315 6.94826 22.1897 7.26369 22.1897C7.57912 22.1897 7.88163 22.315 8.10469 22.538C8.32775 22.761 8.4531 23.0635 8.45316 23.3789V32.7202C8.45316 33.0357 8.32784 33.3382 8.10477 33.5613C7.8817 33.7844 7.57915 33.9097 7.26369 33.9097Z" fill="white"/>
<path d="M19.5567 34.1789C19.2412 34.1789 18.9386 34.0536 18.7156 33.8305C18.4925 33.6074 18.3672 33.3049 18.3672 32.9894V18.6365C18.3672 18.3211 18.4926 18.0186 18.7157 17.7956C18.9387 17.5726 19.2412 17.4473 19.5567 17.4473C19.8721 17.4473 20.1746 17.5726 20.3977 17.7956C20.6207 18.0186 20.7461 18.3211 20.7461 18.6365V32.9894C20.7461 33.3049 20.6208 33.6074 20.3977 33.8305C20.1747 34.0536 19.8721 34.1789 19.5567 34.1789Z" fill="white"/>
</g>
<defs>
<clipPath id="clip0_562_4637">
<rect width="42" height="42" fill="white"/>
</clipPath>
</defs>
</svg>
