<svg width="80" height="80" viewBox="0 0 80 80" fill="none" xmlns="http://www.w3.org/2000/svg">
<g clip-path="url(#clip0_575_1789)">
<path d="M15.7743 70.126C11.0321 70.126 9.30593 68.4283 9.30593 63.6719V16.3304C9.30593 11.5882 11.0131 9.87624 15.7743 9.87624H61.0102C65.7524 9.87624 67.4786 11.574 67.4786 16.3304V33.7296H71.7893V14.1727C71.788 13.0418 71.564 11.9222 71.1301 10.8778C70.6962 9.83343 70.0608 8.88477 69.2602 8.08596C68.4596 7.28716 67.5096 6.65386 66.4643 6.22222C65.419 5.79059 64.2989 5.56907 63.1679 5.57032H13.6119C12.4815 5.56969 11.3622 5.79171 10.3177 6.22368C9.27319 6.65565 8.324 7.28912 7.52432 8.08793C6.72463 8.88673 6.09011 9.83522 5.65699 10.8792C5.22387 11.9233 5.00062 13.0424 5 14.1727L5 65.8248C5.00062 66.9551 5.22387 68.0742 5.65699 69.1183C6.09011 70.1623 6.72463 71.1108 7.52432 71.9096C8.324 72.7084 9.27319 73.3419 10.3177 73.7738C11.3622 74.2058 12.4815 74.4278 13.6119 74.4272H35.5161V70.126H15.7743Z" fill="#0B4CA1" stroke="white" stroke-opacity="0.93"/>
<path d="M61.9217 31.293C62.4495 31.2573 62.9441 31.0225 63.3054 30.636C63.6667 30.2495 63.8676 29.7402 63.8676 29.2111C63.8676 28.6821 63.6667 28.1728 63.3054 27.7863C62.9441 27.3998 62.4495 27.165 61.9217 27.1293H41.0797C40.9866 27.121 40.8929 27.121 40.7999 27.1293C40.2504 27.1699 39.7393 27.4263 39.3781 27.8423C39.0169 28.2584 38.8349 28.8004 38.8719 29.3501C38.9088 29.8998 39.1617 30.4126 39.5753 30.7766C39.9889 31.1406 40.5297 31.3262 41.0797 31.293H61.9217Z" fill="#0B4CA1" stroke="white" stroke-opacity="0.93"/>
<path d="M34.5382 23.8956C34.7216 23.6919 34.8631 23.4542 34.9546 23.1958C35.0461 22.9375 35.0858 22.6637 35.0715 22.39C35.0572 22.1163 34.9891 21.8482 34.8712 21.6008C34.7532 21.3534 34.5877 21.1317 34.3841 20.9483C34.1804 20.7649 33.9427 20.6234 33.6843 20.5319C33.426 20.4404 33.1522 20.4006 32.8785 20.415C32.6048 20.4293 32.3366 20.4973 32.0893 20.6153C31.8419 20.7333 31.6202 20.8988 31.4368 21.1024L23.2754 29.259L18.6755 24.6591C18.2807 24.2862 17.756 24.0819 17.213 24.0897C16.67 24.0975 16.1514 24.3166 15.7674 24.7006C15.3834 25.0846 15.1642 25.6032 15.1565 26.1462C15.1487 26.6893 15.353 27.2139 15.7258 27.6087L23.0905 34.9829L23.8777 34.1957L24.0626 34.3664L34.3864 24.0426C34.4399 23.9966 34.4905 23.9475 34.5382 23.8956Z" fill="#0B4CA1" stroke="white" stroke-opacity="0.93"/>
<path d="M16.1719 51.4063C16.1709 53.0553 16.6591 54.6676 17.5746 56.0393C18.4901 57.4109 19.7918 58.4801 21.315 59.1119C22.8383 59.7436 24.5147 59.9094 26.1322 59.5882C27.7497 59.2671 29.2356 58.4734 30.402 57.3077C31.5684 56.142 32.3629 54.6565 32.6849 53.0392C33.007 51.4219 32.8422 49.7454 32.2113 48.2218C31.5805 46.6981 30.5119 45.3958 29.1409 44.4796C27.7698 43.5633 26.1577 43.0742 24.5087 43.0742C22.2984 43.0742 20.1787 43.9519 18.6153 45.5143C17.052 47.0768 16.1731 49.196 16.1719 51.4063ZM28.9332 50.8846C28.9332 51.7091 28.6887 52.515 28.2307 53.2005C27.7726 53.886 27.1216 54.4202 26.3599 54.7357C25.5983 55.0512 24.7601 55.1338 23.9515 54.9729C23.143 54.8121 22.4002 54.4151 21.8173 53.8321C21.2343 53.2492 20.8373 52.5064 20.6765 51.6979C20.5156 50.8893 20.5982 50.0511 20.9137 49.2895C21.2292 48.5278 21.7634 47.8768 22.4489 47.4187C23.1344 46.9607 23.9403 46.7162 24.7648 46.7162C25.8715 46.7162 26.933 47.1559 27.7156 47.9385C28.4982 48.7211 28.9379 49.7826 28.9379 50.8894L28.9332 50.8846Z" fill="#0B4CA1" stroke="white" stroke-opacity="0.93"/>
<path d="M56.9635 41.8594C60.5369 41.867 63.9802 43.2015 66.6254 45.604C69.2707 48.0066 70.9293 51.306 71.2797 54.8622C71.63 58.4185 70.6471 61.9781 68.5216 64.8507C66.396 67.7232 63.2794 69.704 59.7761 70.4088C56.2728 71.1136 52.6327 70.4921 49.5616 68.665C46.4906 66.8379 44.2077 63.9353 43.1555 60.5202C42.1034 57.1051 42.3571 53.421 43.8675 50.1824C45.3779 46.9439 48.0372 44.3816 51.3297 42.9928C53.113 42.2422 55.0287 41.8568 56.9635 41.8594ZM56.9635 38.2363C53.3844 38.2363 49.8856 39.2977 46.9097 41.2861C43.9338 43.2745 41.6144 46.1008 40.2447 49.4075C38.875 52.7141 38.5167 56.3527 39.2149 59.863C39.9132 63.3733 41.6367 66.5978 44.1675 69.1286C46.6983 71.6594 49.9227 73.3829 53.4331 74.0812C56.9434 74.7794 60.5819 74.421 63.8886 73.0514C67.1953 71.6817 70.0215 69.3623 72.01 66.3863C73.9984 63.4104 75.0597 59.9117 75.0597 56.3326C75.0597 53.9562 74.5917 51.603 73.6822 49.4075C72.7728 47.2119 71.4399 45.217 69.7595 43.5366C68.0791 41.8562 66.0841 40.5232 63.8886 39.6138C61.6931 38.7044 59.3399 38.2363 56.9635 38.2363Z" fill="#0B4CA1" stroke="white" stroke-opacity="0.93"/>
<path d="M56.9597 61.6518C56.6037 61.6518 56.2624 61.5104 56.0107 61.2587C55.759 61.007 55.6176 60.6657 55.6176 60.3097L55.0391 46.5573C55.0391 45.4666 56.2199 44.9877 56.9597 44.9877C57.2062 44.9728 57.4531 45.0085 57.6853 45.0925C57.9175 45.1766 58.1301 45.3072 58.31 45.4765C58.4899 45.6457 58.6332 45.8499 58.7313 46.0765C58.8294 46.3032 58.8801 46.5475 58.8803 46.7944L58.297 60.3097C58.297 60.6649 58.1562 61.0055 57.9056 61.257C57.6549 61.5086 57.3148 61.6505 56.9597 61.6518Z" fill="#0B4CA1"/>
<path d="M55.375 66.1054C55.375 66.5255 55.5419 66.9283 55.8389 67.2254C56.136 67.5224 56.5388 67.6893 56.9589 67.6893C57.379 67.6893 57.7818 67.5224 58.0789 67.2254C58.3759 66.9283 58.5428 66.5255 58.5428 66.1054C58.5428 65.6853 58.3759 65.2824 58.0789 64.9854C57.7818 64.6884 57.379 64.5215 56.9589 64.5215C56.5388 64.5215 56.136 64.6884 55.8389 64.9854C55.5419 65.2824 55.375 65.6853 55.375 66.1054Z" fill="#0B4CA1"/>
</g>
<defs>
<clipPath id="clip0_575_1789">
<rect width="70" height="70" fill="white" transform="translate(5 5)"/>
</clipPath>
</defs>
</svg>
