<svg width="42" height="42" viewBox="0 0 42 42" fill="none" xmlns="http://www.w3.org/2000/svg">
<path d="M12.5433 3C13.2451 3 13.9181 3.27658 14.4143 3.76891C14.9105 4.26123 15.1893 4.92896 15.1893 5.62521V7.87529H26.8114V5.62521C26.8113 4.93656 27.0839 4.27545 27.5705 3.78438C28.0571 3.29331 28.7188 3.01161 29.4127 3L36.3541 3C37.0558 3 37.7288 3.27658 38.225 3.76891C38.7212 4.26123 39 4.92896 39 5.62521V12.563C39 13.2593 38.7212 13.927 38.225 14.4193C37.7288 14.9116 37.0558 15.1882 36.3541 15.1882H34.228V26.8118H36.3541C37.0482 26.8119 37.7144 27.0825 38.2092 27.5654C38.7041 28.0484 38.9878 28.7048 38.9993 29.3934V36.3748C38.9993 37.071 38.7206 37.7388 38.2244 38.2311C37.7281 38.7234 37.0551 39 36.3534 39H29.456C28.7543 39 28.0813 38.7234 27.585 38.2311C27.0888 37.7388 26.8101 37.071 26.8101 36.3748V34.1247H15.1886V36.3748C15.1885 37.0634 14.9157 37.7245 14.429 38.2154C13.9423 38.7064 13.2806 38.9879 12.5866 38.9993H5.64593C4.94476 38.9993 4.27226 38.7232 3.77615 38.2316C3.28004 37.74 3.00088 37.0731 3 36.3774V29.4396C3 28.7434 3.27877 28.0756 3.77498 27.5833C4.27118 27.091 4.94419 26.8144 5.64593 26.8144H7.86585V15.1909H5.64593C4.95128 15.1909 4.28446 14.92 3.78942 14.4365C3.29438 13.953 3.01083 13.2957 3 12.6066V5.62521C3 4.92896 3.27877 4.26123 3.77498 3.76891C4.27118 3.27658 4.94419 3 5.64593 3L12.5433 3ZM36.3541 29.2521H29.456C29.4059 29.2521 29.3578 29.2718 29.3223 29.307C29.2869 29.3422 29.267 29.3899 29.267 29.4396V36.3774C29.267 36.4272 29.2869 36.4749 29.3223 36.5101C29.3578 36.5452 29.4059 36.565 29.456 36.565H36.3534C36.4035 36.565 36.4516 36.5452 36.4871 36.5101C36.5225 36.4749 36.5424 36.4272 36.5424 36.3774V29.4396C36.5424 29.3899 36.5225 29.3422 36.4871 29.307C36.4516 29.2718 36.4035 29.2521 36.3534 29.2521H36.3541ZM12.5433 29.2521H5.64593C5.5958 29.2521 5.54771 29.2718 5.51226 29.307C5.47681 29.3422 5.45689 29.3899 5.45689 29.4396V36.3774C5.45689 36.4272 5.47681 36.4749 5.51226 36.5101C5.54771 36.5452 5.5958 36.565 5.64593 36.565H12.5433C12.5935 36.565 12.6416 36.5452 12.677 36.5101C12.7125 36.4749 12.7324 36.4272 12.7324 36.3774V29.4396C12.7324 29.3899 12.7125 29.3422 12.677 29.307C12.6416 29.2718 12.5935 29.2521 12.5433 29.2521ZM15.1893 12.563C15.1893 13.2593 14.9105 13.927 14.4143 14.4193C13.9181 14.9116 13.2451 15.1882 12.5433 15.1882H10.3221V26.8118H12.5427C13.2368 26.8119 13.903 27.0825 14.3978 27.5654C14.8927 28.0484 15.1764 28.7048 15.1879 29.3934V31.6871H26.8101V29.437C26.8101 28.7483 27.083 28.0873 27.5697 27.5963C28.0564 27.1054 28.7181 26.8239 29.4121 26.8124H31.7704V15.1889H29.4553C28.7613 15.1888 28.095 14.9181 27.6002 14.4352C27.1054 13.9523 26.8216 13.2958 26.8101 12.6073V10.3136H15.1886L15.1893 12.563ZM36.3567 5.43764H29.456C29.4059 5.43764 29.3578 5.45741 29.3223 5.49258C29.2869 5.52775 29.267 5.57546 29.267 5.62521V12.563C29.267 12.6128 29.2869 12.6605 29.3223 12.6956C29.3578 12.7308 29.4059 12.7506 29.456 12.7506H36.3534C36.4035 12.7506 36.4516 12.7308 36.4871 12.6956C36.5225 12.6605 36.5424 12.6128 36.5424 12.563V5.62521C36.5424 5.57546 36.5225 5.52775 36.4871 5.49258C36.4516 5.45741 36.4035 5.43764 36.3534 5.43764H36.3567ZM12.546 5.43764H5.64593C5.5958 5.43764 5.54771 5.45741 5.51226 5.49258C5.47681 5.52775 5.45689 5.57546 5.45689 5.62521V12.563C5.45689 12.6128 5.47681 12.6605 5.51226 12.6956C5.54771 12.7308 5.5958 12.7506 5.64593 12.7506H12.5433C12.5935 12.7506 12.6416 12.7308 12.677 12.6956C12.7125 12.6605 12.7324 12.6128 12.7324 12.563V5.62521C12.7324 5.57546 12.7125 5.52775 12.677 5.49258C12.6416 5.45741 12.5935 5.43764 12.5433 5.43764H12.546Z" fill="white"/>
</svg>
