<svg width="63" height="70" viewBox="0 0 63 70" fill="none" xmlns="http://www.w3.org/2000/svg">
<g clip-path="url(#clip0_562_4962)">
<path d="M10.7743 65.126C6.03209 65.126 4.30593 63.4283 4.30593 58.6719V11.3304C4.30593 6.58818 6.01312 4.87624 10.7743 4.87624H56.0102C60.7524 4.87624 62.4786 6.57395 62.4786 11.3304V28.7296H66.7893V9.17268C66.788 8.04176 66.564 6.92215 66.1301 5.87779C65.6962 4.83343 65.0608 3.88477 64.2602 3.08596C63.4596 2.28716 62.5096 1.65386 61.4643 1.22222C60.419 0.79059 59.2989 0.569072 58.1679 0.570318H8.61185C7.48155 0.569695 6.36219 0.791708 5.31769 1.22368C4.27319 1.65565 3.324 2.28912 2.52432 3.08793C1.72463 3.88673 1.09011 4.83522 0.656992 5.87925C0.223869 6.92327 0.000622581 8.04238 0 9.17268L0 60.8248C0.000622581 61.9551 0.223869 63.0742 0.656992 64.1183C1.09011 65.1623 1.72463 66.1108 2.52432 66.9096C3.324 67.7084 4.27319 68.3419 5.31769 68.7738C6.36219 69.2058 7.48155 69.4278 8.61185 69.4272H30.5161V65.126H10.7743Z" fill="#0B4CA1" stroke="white" stroke-opacity="0.93"/>
<path d="M56.9217 26.293C57.4495 26.2573 57.9441 26.0225 58.3054 25.636C58.6667 25.2495 58.8676 24.7402 58.8676 24.2111C58.8676 23.6821 58.6667 23.1728 58.3054 22.7863C57.9441 22.3998 57.4495 22.165 56.9217 22.1293H36.0797C35.9866 22.121 35.8929 22.121 35.7999 22.1293C35.2504 22.1699 34.7393 22.4263 34.3781 22.8423C34.0169 23.2584 33.8349 23.8004 33.8719 24.3501C33.9088 24.8998 34.1617 25.4126 34.5753 25.7766C34.9889 26.1406 35.5297 26.3262 36.0797 26.293H56.9217Z" fill="#0B4CA1" stroke="white" stroke-opacity="0.93"/>
<path d="M29.5382 18.8956C29.7216 18.6919 29.8631 18.4542 29.9546 18.1958C30.0461 17.9375 30.0858 17.6637 30.0715 17.39C30.0572 17.1163 29.9891 16.8482 29.8712 16.6008C29.7532 16.3534 29.5877 16.1317 29.3841 15.9483C29.1804 15.7649 28.9427 15.6234 28.6843 15.5319C28.426 15.4404 28.1522 15.4006 27.8785 15.415C27.6048 15.4293 27.3366 15.4973 27.0893 15.6153C26.8419 15.7333 26.6202 15.8988 26.4368 16.1024L18.2754 24.259L13.6755 19.6591C13.2807 19.2862 12.756 19.0819 12.213 19.0897C11.67 19.0975 11.1514 19.3166 10.7674 19.7006C10.3834 20.0846 10.1642 20.6032 10.1565 21.1462C10.1487 21.6893 10.353 22.2139 10.7258 22.6087L18.0905 29.9829L18.8777 29.1957L19.0626 29.3664L29.3864 19.0426C29.4399 18.9966 29.4905 18.9475 29.5382 18.8956Z" fill="#0B4CA1" stroke="white" stroke-opacity="0.93"/>
<path d="M11.1719 46.4063C11.1709 48.0553 11.6591 49.6676 12.5746 51.0393C13.4901 52.4109 14.7918 53.4801 16.315 54.1119C17.8383 54.7436 19.5147 54.9094 21.1322 54.5882C22.7497 54.2671 24.2356 53.4734 25.402 52.3077C26.5684 51.142 27.3629 49.6565 27.6849 48.0392C28.007 46.4219 27.8422 44.7454 27.2113 43.2218C26.5805 41.6981 25.5119 40.3958 24.1409 39.4796C22.7698 38.5633 21.1577 38.0742 19.5087 38.0742C17.2984 38.0742 15.1787 38.9519 13.6153 40.5143C12.052 42.0768 11.1731 44.196 11.1719 46.4063ZM23.9332 45.8846C23.9332 46.7091 23.6887 47.515 23.2307 48.2005C22.7726 48.886 22.1216 49.4202 21.3599 49.7357C20.5983 50.0512 19.7601 50.1338 18.9515 49.9729C18.143 49.8121 17.4002 49.4151 16.8173 48.8321C16.2343 48.2492 15.8373 47.5064 15.6765 46.6979C15.5156 45.8893 15.5982 45.0511 15.9137 44.2895C16.2292 43.5278 16.7634 42.8768 17.4489 42.4187C18.1344 41.9607 18.9403 41.7162 19.7648 41.7162C20.8715 41.7162 21.933 42.1559 22.7156 42.9385C23.4982 43.7211 23.9379 44.7826 23.9379 45.8894L23.9332 45.8846Z" fill="#0B4CA1" stroke="white" stroke-opacity="0.93"/>
<path d="M51.9635 36.8594C55.5369 36.867 58.9802 38.2015 61.6254 40.604C64.2707 43.0066 65.9293 46.306 66.2797 49.8622C66.63 53.4185 65.6471 56.9781 63.5216 59.8507C61.396 62.7232 58.2794 64.704 54.7761 65.4088C51.2728 66.1136 47.6327 65.4921 44.5616 63.665C41.4906 61.8379 39.2077 58.9353 38.1555 55.5202C37.1034 52.1051 37.3571 48.421 38.8675 45.1824C40.3779 41.9439 43.0372 39.3816 46.3297 37.9928C48.113 37.2422 50.0287 36.8568 51.9635 36.8594ZM51.9635 33.2363C48.3844 33.2363 44.8856 34.2977 41.9097 36.2861C38.9338 38.2745 36.6144 41.1008 35.2447 44.4075C33.875 47.7141 33.5167 51.3527 34.2149 54.863C34.9132 58.3733 36.6367 61.5978 39.1675 64.1286C41.6983 66.6594 44.9227 68.3829 48.4331 69.0812C51.9434 69.7794 55.5819 69.421 58.8886 68.0514C62.1953 66.6817 65.0215 64.3623 67.01 61.3863C68.9984 58.4104 70.0597 54.9117 70.0597 51.3326C70.0597 48.9562 69.5917 46.603 68.6822 44.4075C67.7728 42.2119 66.4399 40.217 64.7595 38.5366C63.0791 36.8562 61.0841 35.5232 58.8886 34.6138C56.6931 33.7044 54.3399 33.2363 51.9635 33.2363Z" fill="#0B4CA1" stroke="white" stroke-opacity="0.93"/>
<path d="M51.9597 56.6518C51.6037 56.6518 51.2624 56.5104 51.0107 56.2587C50.759 56.007 50.6176 55.6657 50.6176 55.3097L50.0391 41.5573C50.0391 40.4666 51.2199 39.9877 51.9597 39.9877C52.2062 39.9728 52.4531 40.0085 52.6853 40.0925C52.9175 40.1766 53.1301 40.3072 53.31 40.4765C53.4899 40.6457 53.6332 40.8499 53.7313 41.0765C53.8294 41.3032 53.8801 41.5475 53.8803 41.7944L53.297 55.3097C53.297 55.6649 53.1562 56.0055 52.9056 56.257C52.6549 56.5086 52.3148 56.6505 51.9597 56.6518Z" fill="#0B4CA1"/>
<path d="M50.375 61.1054C50.375 61.5255 50.5419 61.9283 50.8389 62.2254C51.136 62.5224 51.5388 62.6893 51.9589 62.6893C52.379 62.6893 52.7818 62.5224 53.0789 62.2254C53.3759 61.9283 53.5428 61.5255 53.5428 61.1054C53.5428 60.6853 53.3759 60.2824 53.0789 59.9854C52.7818 59.6884 52.379 59.5215 51.9589 59.5215C51.5388 59.5215 51.136 59.6884 50.8389 59.9854C50.5419 60.2824 50.375 60.6853 50.375 61.1054Z" fill="#0B4CA1"/>
</g>
<defs>
<clipPath id="clip0_562_4962">
<rect width="70" height="70" fill="white"/>
</clipPath>
</defs>
</svg>
