<svg width="42" height="42" viewBox="0 0 42 42" fill="none" xmlns="http://www.w3.org/2000/svg">
<path d="M31.487 39H10.2C6.13042 39 3 35.8696 3 31.8V10.2C3 6.13042 6.13042 3 10.2 3H24.6C25.8522 3 26.4783 3.93913 26.4783 4.87826C26.4783 6.13042 25.5391 5.75652 24.6 5.75652H10.2C8.32175 5.75652 5.75652 8.32172 5.75652 10.2V31.8C5.75652 33.6782 8.32175 36.2435 10.2 36.2435H31.487C33.3652 36.2435 35.9304 33.6782 35.9304 31.8V18.6522C35.9304 17.4 35.8696 16.7739 36.8087 16.7739C37.7478 16.7739 38.687 17.713 38.687 18.6522V31.487C38.687 35.8696 35.2435 39 31.487 39ZM20.5305 29.9217L12.7043 19.9044C12.0783 19.2783 12.0783 18.0261 12.7043 17.4C13.6435 16.7739 14.5826 16.7739 15.5217 17.4L20.8435 23.9739L35.5565 9.57392C36.1826 8.94782 37.4348 8.94782 38.3739 9.57392C38.687 9.88695 39 10.513 39 10.8261C39 11.1391 38.687 11.7652 38.3739 12.0782L20.5305 29.9217Z" fill="white"/>
</svg>
