<svg width="80" height="80" viewBox="0 0 80 80" fill="none" xmlns="http://www.w3.org/2000/svg">
<path d="M54.875 23C56.0504 23 57 22.0504 57 20.875V8.125C57 6.94961 56.0504 6 54.875 6C53.6996 6 52.75 6.94961 52.75 8.125V20.875C52.75 22.0504 53.6996 23 54.875 23ZM59.125 44.25H33.625C32.4496 44.25 31.5 45.1996 31.5 46.375C31.5 47.5504 32.4496 48.5 33.625 48.5H59.125C60.3004 48.5 61.25 47.5504 61.25 46.375C61.25 45.1996 60.3004 44.25 59.125 44.25ZM20.875 57C19.6996 57 18.75 57.9496 18.75 59.125C18.75 60.3004 19.6996 61.25 20.875 61.25H42.125C43.3004 61.25 44.25 60.3004 44.25 59.125C44.25 57.9496 43.3004 57 42.125 57H20.875ZM50.625 35.75H59.125C60.3004 35.75 61.25 34.8004 61.25 33.625C61.25 32.4496 60.3004 31.5 59.125 31.5H50.625C49.4496 31.5 48.5 32.4496 48.5 33.625C48.5 34.8004 49.4496 35.75 50.625 35.75ZM59.125 57H54.875C53.6996 57 52.75 57.9496 52.75 59.125C52.75 60.3004 53.6996 61.25 54.875 61.25H59.125C60.3004 61.25 61.25 60.3004 61.25 59.125C61.25 57.9496 60.3004 57 59.125 57ZM48.5 14.5H31.5V18.75H48.5V14.5ZM20.875 35.75H37.875C39.0504 35.75 40 34.8004 40 33.625C40 32.4496 39.0504 31.5 37.875 31.5H20.875C19.6996 31.5 18.75 32.4496 18.75 33.625C18.75 34.8004 19.6996 35.75 20.875 35.75ZM65.5 14.5H61.25V18.75H65.5C67.8441 18.75 69.75 20.6559 69.75 23V65.5C69.75 67.8441 67.8441 69.75 65.5 69.75H14.5C12.1559 69.75 10.25 67.8441 10.25 65.5V23C10.25 20.6559 12.1559 18.75 14.5 18.75H18.75V14.5H14.5C9.80508 14.5 6 18.3051 6 23V65.5C6 70.1949 9.80508 74 14.5 74H65.5C70.1949 74 74 70.1949 74 65.5V23C74 18.3051 70.1949 14.5 65.5 14.5ZM25.125 23C26.3004 23 27.25 22.0504 27.25 20.875V8.125C27.25 6.94961 26.3004 6 25.125 6C23.9496 6 23 6.94961 23 8.125V20.875C23 22.0504 23.9496 23 25.125 23Z" fill="#0B4CA1" stroke="white" stroke-opacity="0.93"/>
</svg>
