<svg width="80" height="80" viewBox="0 0 80 80" fill="none" xmlns="http://www.w3.org/2000/svg">
<path d="M19.6797 14.8008H29.6797C31.1797 14.8008 32.1797 15.7099 32.1797 17.0735C32.1797 18.4371 30.6797 19.3462 29.6797 19.3462H19.6797C18.1797 19.3462 17.1797 18.4371 17.1797 17.0735C17.1797 15.7099 18.1797 14.8008 19.6797 14.8008ZM19.6797 25.2553H29.6797C31.1797 25.2553 32.1797 26.1644 32.1797 27.5281C32.1797 28.8917 30.6797 29.8008 29.6797 29.8008H19.6797C18.1797 29.8008 17.1797 28.8917 17.1797 27.5281C17.1797 26.1644 18.1797 25.2553 19.6797 25.2553Z" fill="white" stroke="white" stroke-opacity="0.93"/>
<path d="M10.7829 56.3563V13.6897C10.7829 11.023 12.6241 9.24523 15.386 9.24523H33.3384C36.1003 9.24523 37.9416 11.023 37.9416 13.6897V31.4675H42.5448V13.6897C42.5448 8.80078 38.4019 4.80078 33.3384 4.80078H15.386C10.3225 4.80078 6.17969 8.80078 6.17969 13.6897V60.8008H22.2908V56.3563H10.7829ZM64.1797 27.9119C64.1797 23.023 60.0368 19.023 54.9733 19.023H47.1479V23.4674H54.9733C57.7352 23.4674 59.5765 25.2452 59.5765 27.9119V31.4675H64.1797V27.9119Z" fill="white" stroke="white" stroke-opacity="0.93"/>
<path d="M76.0965 49.1761L63.4192 36.7956C62.061 35.4692 59.3444 35.4692 57.5334 36.7956L53.0057 41.2172L48.4781 36.7956C47.1199 35.4692 44.4033 35.4692 42.5923 36.7956L27.1984 51.8291C25.8401 53.1555 25.8401 55.8085 27.1984 57.5771L47.5726 77.4743C48.4781 78.3586 49.3837 78.8008 50.2892 78.8008C51.1947 78.8008 52.553 78.3586 53.0057 77.4743L68.3996 62.4409C68.8524 61.9987 68.8524 61.5566 69.3051 61.1144L75.6438 54.9242C76.5493 54.0399 77.0021 53.1555 77.0021 52.2712C77.4548 50.9447 77.0021 50.0604 76.0965 49.1761ZM55.2696 53.1555L53.9113 54.482C53.4585 54.9242 53.4585 54.9242 53.4585 55.3663C53.4585 55.8085 53.4585 56.2507 53.9113 56.2507L61.6082 63.7674L60.2499 65.0938L51.6475 56.6928C51.1947 56.2507 51.1947 56.2507 50.7419 56.2507C50.2892 56.2507 49.8364 56.2507 49.8364 56.6928L48.4781 58.0193C48.0254 58.0193 48.0254 58.4614 48.0254 58.9036C48.0254 59.3458 48.0254 59.7879 48.4781 59.7879L57.0806 68.189L55.7223 69.5154L46.2143 60.2301C45.7616 59.7879 44.8561 59.7879 44.4033 60.2301L43.045 61.5566C42.5923 61.9987 42.5923 62.883 43.045 63.3252L52.553 72.6105L52.1002 73.0527C51.6475 73.4949 50.7419 73.4949 50.2892 73.0527L32.6315 55.8085C32.1788 55.3663 32.1788 54.482 32.6315 54.0399L45.3088 41.6594C45.7616 41.2172 45.7616 41.2172 46.2143 41.2172C46.6671 41.2172 47.1199 41.2172 47.1199 41.6594L64.7775 58.9036C65.2303 59.3458 65.2303 59.3458 65.2303 59.7879C65.2303 60.2301 65.2303 60.6722 64.7775 60.6722L64.3248 61.1144L57.0806 53.1555C56.6278 52.7134 55.7223 52.7134 55.2696 53.1555ZM72.0217 51.8291C72.0217 52.2712 72.0217 52.7134 71.5689 52.7134L68.3996 55.8085L56.1751 43.8702L59.3444 40.7751C59.7972 40.3329 60.7027 40.3329 61.1554 40.7751L71.1162 50.5026C72.0217 51.3869 72.0217 51.3869 72.0217 51.8291Z" fill="white" stroke="white" stroke-opacity="0.93"/>
</svg>
