<svg width="19" height="15" viewBox="0 0 19 15" fill="none" xmlns="http://www.w3.org/2000/svg">
<path d="M15.8797 12.1723L12.4039 10.295C12.3049 10.2445 12.1878 10.2613 12.1158 10.3287C12.0528 10.3707 12.0167 10.4381 12.0167 10.5139V11.7935H6.35293C3.82266 11.7935 1.76063 9.86564 1.76063 7.50001C1.76063 6.81809 1.93172 6.16987 2.23787 5.59738C2.28289 5.5132 2.30991 5.4206 2.30991 5.31956C2.30991 4.98281 2.03078 4.71342 1.6796 4.71342C1.39144 4.71342 1.15734 4.89022 1.07629 5.14278C0.707112 5.86676 0.5 6.66654 0.5 7.49999C0.5 10.5054 3.13832 12.9721 6.35293 12.9721H12.0167V14.2517C12.0167 14.3275 12.0618 14.3949 12.1158 14.437C12.1968 14.5043 12.3139 14.5211 12.4039 14.4706L15.8707 12.6017C15.9517 12.5596 15.9967 12.467 15.9967 12.3828C16.0057 12.2986 15.9607 12.2144 15.8797 12.1723ZM12.6561 2.02788H7.46048V0.74825C7.46048 0.672474 7.41546 0.605125 7.36144 0.56304C7.28039 0.495707 7.16334 0.478853 7.07328 0.529365L3.59754 2.40673C3.51651 2.44881 3.47148 2.54141 3.47148 2.6256C3.46247 2.70978 3.5075 2.79397 3.59754 2.84448L7.07328 4.71342C7.17233 4.76395 7.28938 4.74709 7.36144 4.67976C7.42446 4.63766 7.46048 4.57031 7.46048 4.49455V3.20649H12.6561C15.1863 3.20649 17.2483 5.13435 17.2483 7.49999C17.2483 7.88722 17.1943 8.25767 17.0863 8.61125C17.0683 8.67019 17.0502 8.73753 17.0502 8.80489C17.0502 9.14164 17.3294 9.41103 17.6806 9.41103C18.0137 9.41103 18.2839 9.15847 18.3109 8.84698H18.3199C18.4369 8.41762 18.5 7.97144 18.5 7.50841C18.509 4.49455 15.8797 2.02788 12.6561 2.02788Z" fill="#0B4CA1" stroke="#0B4CA1"/>
</svg>
