<svg width="15" height="15" viewBox="0 0 15 15" fill="none" xmlns="http://www.w3.org/2000/svg">
<g clip-path="url(#clip0_562_1924)">
<path d="M6.78117 14.0136C3.50864 14.0136 1.19116 11.7201 1.19116 8.56223C1.19116 6.88489 2.18559 5.07746 2.22838 5.00386C2.31567 4.84982 2.48683 4.76253 2.66312 4.78307C2.83941 4.80703 2.97976 4.9354 3.0294 5.10485C3.03282 5.1134 3.30154 6.13008 3.65412 6.69319C3.89032 7.07316 4.13336 7.33845 4.40379 7.52673C4.22065 6.72229 4.0803 5.5122 4.30794 4.27302C4.93267 0.865268 7.58562 0.0488457 7.69858 0.0163257C7.84406 -0.0247522 8.00153 0.0129026 8.11278 0.115597C8.22403 0.218292 8.27367 0.372334 8.24286 0.521241C8.23944 0.545203 7.79956 2.93114 8.72895 4.96278C8.81282 5.14763 8.93091 5.36158 9.05757 5.57724C9.09351 5.26916 9.15342 4.96278 9.23729 4.66326C9.5796 3.45831 10.4611 3.04582 10.4987 3.03041C10.6459 2.96537 10.8171 2.98591 10.9437 3.08518C11.0721 3.18446 11.132 3.34877 11.1029 3.50965C11.0978 3.54046 10.9745 4.36031 11.6677 5.52418C12.2925 6.5768 12.4705 7.2563 12.4705 8.56565C12.4687 11.7218 10.0794 14.0136 6.78117 14.0136ZM2.58439 6.50663C2.33278 7.14847 2.20099 7.83139 2.19928 8.52115C2.19928 11.0919 4.094 12.9593 6.78289 12.9593C9.49231 12.9593 11.4589 11.0937 11.4589 8.52115C11.4589 7.40863 11.3237 6.89687 10.7982 6.01198C10.4474 5.42149 10.2728 4.89261 10.1941 4.46814C10.0982 4.6256 10.0246 4.79505 9.97669 4.97134C9.71995 5.87677 9.7867 6.93966 9.7867 6.95164C9.79868 7.13991 9.68401 7.31449 9.506 7.37953C9.328 7.44286 9.13117 7.37953 9.02334 7.22549C8.99082 7.18099 8.24286 6.10954 7.91424 5.38554C7.23132 3.88963 7.23988 2.27047 7.31005 1.33938C6.61515 1.74502 5.54884 2.659 5.20652 4.51264C4.87448 6.32007 5.52145 8.20965 5.52659 8.22676C5.58307 8.37396 5.55397 8.54169 5.44957 8.6615C5.34687 8.78131 5.1877 8.83266 5.03536 8.79501C4.98402 8.78131 3.71403 8.47152 2.94724 7.24774C2.80689 7.01154 2.68537 6.76336 2.58439 6.50663Z" fill="white"/>
</g>
<defs>
<clipPath id="clip0_562_1924">
<rect width="14.0136" height="14.0136" fill="white"/>
</clipPath>
</defs>
</svg>
