<svg width="20" height="20" viewBox="0 0 20 20" fill="none" xmlns="http://www.w3.org/2000/svg">
<path d="M16.3067 7.12941L10.6748 9.20562C10.3142 9.33835 9.9185 9.34082 9.55623 9.21262L3.70945 7.13341C3.50491 7.0642 3.32722 6.93261 3.20136 6.75715C3.0755 6.5817 3.00781 6.3712 3.00781 6.15528C3.00781 5.93935 3.0755 5.72885 3.20136 5.5534C3.32722 5.37794 3.50491 5.24636 3.70945 5.17715L9.55623 3.09494C9.91837 2.96633 10.3141 2.96845 10.6748 3.10093L16.3067 5.17715C16.5081 5.24829 16.6824 5.38013 16.8058 5.55451C16.9291 5.72888 16.9953 5.9372 16.9953 6.15078C16.9953 6.36436 16.9291 6.57268 16.8058 6.74705C16.6824 6.92142 16.5081 7.05326 16.3067 7.12441V7.12941ZM15.9398 6.12979L10.3079 4.05357C10.1788 4.00684 10.0373 4.00684 9.9081 4.05357L4.06131 6.13179C4.05857 6.13214 4.05594 6.13306 4.05357 6.13448C4.0512 6.1359 4.04916 6.1378 4.04756 6.14006C4.04596 6.14231 4.04485 6.14487 4.04429 6.14758C4.04374 6.15028 4.04375 6.15307 4.04432 6.15578C4.04357 6.15849 4.04344 6.16133 4.04392 6.1641C4.04441 6.16687 4.04551 6.1695 4.04713 6.1718C4.04876 6.17409 4.05087 6.176 4.05333 6.17738C4.05578 6.17876 4.05851 6.17957 4.06131 6.17977L9.9081 8.25798C10.0372 8.30505 10.1788 8.30505 10.3079 8.25798L15.9398 6.18177C15.9449 6.18102 15.9496 6.17831 15.9528 6.17421C15.9559 6.1701 15.9574 6.16493 15.9568 6.15977C15.9579 6.15695 15.9584 6.15389 15.9581 6.15086C15.9578 6.14783 15.9567 6.14492 15.9551 6.14237C15.9534 6.13982 15.9511 6.13771 15.9485 6.13622C15.9458 6.13473 15.9429 6.13389 15.9398 6.13378V6.12979ZM3.70745 13.6849L9.89111 15.9261C10.0334 15.9783 10.1896 15.9783 10.3319 15.9261L16.2917 13.6879C16.4186 13.6453 16.5571 13.6535 16.6781 13.7108C16.7991 13.7681 16.8932 13.87 16.9407 13.9952C16.9882 14.1204 16.9853 14.2591 16.9327 14.3822C16.8801 14.5054 16.7818 14.6033 16.6585 14.6556L10.7018 16.8897C10.5128 16.9603 10.3128 16.9965 10.111 16.9967C9.91606 16.9969 9.72256 16.9631 9.53924 16.8967L3.35258 14.6556C3.22654 14.6063 3.12477 14.5097 3.06906 14.3864C3.01335 14.2631 3.00813 14.1229 3.05451 13.9958C3.10089 13.8686 3.19518 13.7647 3.31722 13.7063C3.43925 13.6478 3.57932 13.6394 3.70745 13.6829V13.6849Z" fill="white"/>
<path d="M10.1106 13.0911C9.91574 13.0897 9.72252 13.0559 9.53877 12.9911L3.35212 10.8619C3.26611 10.8357 3.18877 10.7868 3.12825 10.7203C3.06773 10.6538 3.02628 10.5722 3.00825 10.4841C2.9919 10.397 2.99996 10.3072 3.03154 10.2244C3.06312 10.1417 3.11699 10.0693 3.18718 10.0153C3.2598 9.95906 3.34556 9.92231 3.43634 9.90849C3.52712 9.89467 3.61993 9.90424 3.70598 9.93629L9.89264 12.0675C10.0354 12.117 10.1907 12.117 10.3335 12.0675L16.2932 9.93929C16.4199 9.89189 16.56 9.89516 16.6844 9.9484C16.8088 10.0016 16.9078 10.1008 16.961 10.2252C16.9846 10.2864 16.9955 10.3518 16.9931 10.4174C16.9907 10.483 16.975 10.5475 16.947 10.6068C16.919 10.6662 16.8792 10.7192 16.83 10.7627C16.7809 10.8062 16.7234 10.8393 16.6611 10.8599L10.7013 12.9891C10.5122 13.0559 10.3131 13.0897 10.1126 13.0891L10.1106 13.0911Z" fill="white"/>
</svg>
