<svg width="12" height="12" viewBox="0 0 12 12" fill="none" xmlns="http://www.w3.org/2000/svg">
<g clip-path="url(#clip0_562_1254)">
<path d="M7.05011 5.99594L11.7776 1.2684C12.0681 0.978377 12.0681 0.50754 11.7776 0.217517C11.4881 -0.0725058 11.0173 -0.0725058 10.7277 0.217517L5.9997 4.94555L1.27169 0.217529C0.982163 -0.0724938 0.511315 -0.0724938 0.221783 0.217529C-0.0687195 0.507552 -0.0687195 0.978389 0.221783 1.26841L4.94931 5.99594L0.221783 10.7235C-0.0687195 11.0135 -0.0687195 11.4843 0.221783 11.7744C0.511315 12.0644 0.982163 12.0644 1.27169 11.7744L5.99971 7.04634L10.7277 11.7744C11.0173 12.0644 11.4881 12.0644 11.7776 11.7744C12.0682 11.4843 12.0682 11.0135 11.7776 10.7235L7.05011 5.99594Z" fill="#0B4CA1"/>
</g>
<defs>
<clipPath id="clip0_562_1254">
<rect width="12" height="12" fill="white"/>
</clipPath>
</defs>
</svg>
