<svg width="24" height="24" viewBox="0 0 24 24" fill="none" xmlns="http://www.w3.org/2000/svg">
<g opacity="0.5">
<path d="M16.4832 16.3405C16.2424 16.2749 15.9896 16.2397 15.728 16.2397C14.6688 16.2397 13.7432 16.8117 13.2432 17.6646C13.0816 17.939 12.8016 18.1262 12.4832 18.147C12.3496 18.1558 12.2152 18.1598 12.08 18.1598C8.95201 18.1598 6.3632 15.8573 5.9112 12.8556C5.85359 12.47 6.03599 12.09 6.36881 11.8884C7.20237 11.3843 7.75998 10.4691 7.75998 9.42343C7.75998 8.8594 7.59759 8.33379 7.31759 7.88977C6.80716 7.08094 5.90638 6.54331 4.87999 6.54331C3.34078 6.54331 2.084 7.75057 2.004 9.26984C2.00161 9.32104 2 9.37223 2 9.42346C2 9.56988 2.01118 9.71308 2.032 9.85307C2.49921 16.6398 8.15116 22 15.056 22C15.2088 22 15.3616 21.9968 15.5128 21.9912C15.584 21.9968 15.6552 22 15.728 22C15.9312 22 16.1288 21.9792 16.3192 21.9392C17.6264 21.6664 18.6079 20.5079 18.6079 19.1199C18.608 17.791 17.7072 16.6726 16.4832 16.3405ZM15.4401 14.1586C14.9985 14.1586 14.6401 13.8007 14.6401 13.3595C14.6401 11.1536 12.8459 9.35864 10.6401 9.35864C10.1985 9.35864 9.84015 9.00071 9.84015 8.55951C9.84015 8.11831 10.1985 7.76038 10.6401 7.76038C13.7282 7.76038 16.2401 10.2722 16.2401 13.3595C16.2401 13.8007 15.8818 14.1586 15.4401 14.1586ZM18.3198 13.6789C17.8781 13.6789 17.5198 13.321 17.5198 12.8798C17.5198 9.35033 14.649 6.47845 11.1198 6.47845C10.6781 6.47845 10.3198 6.12052 10.3198 5.67932C10.3198 5.23812 10.6781 4.88019 11.1198 4.88019C15.5313 4.88019 19.1198 8.469 19.1198 12.8798C19.1198 13.321 18.7615 13.6789 18.3198 13.6789ZM21.2 13.1987C20.7583 13.1987 20.4 12.8408 20.4 12.3996C20.4 7.54658 16.4521 3.59826 11.6 3.59826C11.1584 3.59826 10.8 3.24033 10.8 2.79913C10.8 2.35793 11.1584 2 11.6 2C17.3344 2 22 6.66525 22 12.3996C22 12.8408 21.6417 13.1987 21.2 13.1987Z" fill="white"/>
</g>
</svg>
