<svg width="20" height="20" viewBox="0 0 20 20" fill="none" xmlns="http://www.w3.org/2000/svg">
<mask id="mask0_562_1439" style="mask-type:alpha" maskUnits="userSpaceOnUse" x="0" y="0" width="20" height="20">
<rect width="20" height="20" fill="#D9D9D9"/>
</mask>
<g mask="url(#mask0_562_1439)">
<circle cx="10" cy="10" r="7.5" stroke="white"/>
<path d="M13.2416 12.2874L11.4761 11.3679C11.4258 11.3431 11.3664 11.3514 11.3298 11.3843C11.2978 11.405 11.2795 11.4379 11.2795 11.4751V12.1018H8.40261C7.11739 12.1018 6.07001 11.1576 6.07001 9.99889C6.07001 9.66489 6.15691 9.34739 6.31242 9.06699C6.33528 9.02576 6.34901 8.9804 6.34901 8.93091C6.34901 8.76598 6.20723 8.63403 6.02885 8.63403C5.88248 8.63403 5.76357 8.72062 5.7224 8.84433C5.53489 9.19893 5.42969 9.59066 5.42969 9.99888C5.42969 11.4709 6.76979 12.6791 8.40261 12.6791H11.2795V13.3059C11.2795 13.343 11.3023 13.376 11.3298 13.3966C11.3709 13.4296 11.4304 13.4378 11.4761 13.4131L13.237 12.4977C13.2782 12.477 13.3011 12.4317 13.3011 12.3905C13.3056 12.3492 13.2827 12.308 13.2416 12.2874ZM11.6042 7.31866H8.96517V6.6919C8.96517 6.65479 8.9423 6.6218 8.91486 6.60119C8.87369 6.56821 8.81424 6.55995 8.76849 6.5847L7.00304 7.50422C6.96188 7.52483 6.93901 7.57019 6.93901 7.61142C6.93443 7.65266 6.95731 7.69389 7.00304 7.71863L8.76849 8.63403C8.81881 8.65878 8.87826 8.65052 8.91486 8.61754C8.94687 8.59692 8.96517 8.56393 8.96517 8.52683V7.89594H11.6042C12.8894 7.89594 13.9368 8.8402 13.9368 9.99888C13.9368 10.1885 13.9093 10.37 13.8545 10.5432C13.8453 10.572 13.8362 10.605 13.8362 10.638C13.8362 10.803 13.9779 10.9349 14.1563 10.9349C14.3256 10.9349 14.4628 10.8112 14.4765 10.6586H14.4811C14.5405 10.4483 14.5725 10.2298 14.5725 10.003C14.5771 8.52683 13.2416 7.31866 11.6042 7.31866Z" fill="white" stroke="white" stroke-width="0.5"/>
</g>
</svg>
