<svg width="16" height="16" viewBox="0 0 16 16" fill="none" xmlns="http://www.w3.org/2000/svg">
<g clip-path="url(#clip0_562_1452)">
<path d="M16 8C16 3.58172 12.4183 0 8 0C3.58172 0 0 3.58172 0 8C0 12.4183 3.58172 16 8 16C12.4183 16 16 12.4183 16 8ZM1.10345 8C1.10345 4.19114 4.19114 1.10345 8 1.10345C11.8089 1.10345 14.8966 4.19114 14.8966 8C14.8966 11.8089 11.8089 14.8966 8 14.8966C4.19114 14.8966 1.10345 11.8089 1.10345 8ZM8.00024 7.44828C8.15183 7.44828 8.27586 7.57201 8.27586 7.7239V3.86231C8.27586 3.5576 8.02885 3.31059 7.72414 3.31059C7.41943 3.31059 7.17241 3.5576 7.17241 3.86231V7.7239C7.17241 8.18202 7.54301 8.55172 8.00024 8.55172H11.8618C12.1665 8.55172 12.4136 8.30471 12.4136 8C12.4136 7.69529 12.1665 7.44828 11.8618 7.44828H8.00024Z" fill="white"/>
</g>
<defs>
<clipPath id="clip0_562_1452">
<rect width="16" height="16" fill="white"/>
</clipPath>
</defs>
</svg>
