<svg width="28" height="25" viewBox="0 0 28 25" fill="none" xmlns="http://www.w3.org/2000/svg">
<g filter="url(#filter0_d_562_1329)">
<g filter="url(#filter1_d_562_1329)">
<path d="M3.82219 16.8162C3.79805 16.3177 4.13592 15.6655 4.59446 15.6116L4.70306 15.5981H5.19779V8.42963C4.65479 8.29489 4.18419 8.24099 3.61705 7.79633C3.23092 7.48641 3.01372 6.31412 3.30332 5.88293C3.59292 5.46522 4.13592 5.3709 4.53412 5.68081C6.42859 7.16302 8.20239 5.74818 10.1089 0.600884L10.121 0.587409L10.1451 0.53351L10.121 0.600884C10.2055 0.38529 10.3503 0.21012 10.5313 0.102323L10.4709 0.142747L10.5192 0.115797L10.5313 0.102323C10.7605 -0.0189485 11.026 -0.0324234 11.2553 0.0618989L11.2673 0.0753737L11.3156 0.102323L11.2553 0.0753737C11.4483 0.156221 11.6173 0.317917 11.7138 0.520036L11.6776 0.452663C11.6897 0.466137 11.6897 0.479612 11.7017 0.493086L11.7138 0.506561C12.9084 3.01284 13.9099 4.71064 14.6219 5.54607C14.9597 4.85886 15.2976 4.05038 15.6355 3.12064L15.6475 3.10716L15.6596 3.08021L15.6355 3.13411C15.6596 3.06674 15.6958 2.99936 15.7441 2.93199L15.7561 2.90504C15.8527 2.7703 15.9854 2.6625 16.1302 2.59513L16.0819 2.62208L16.1181 2.6086L16.1302 2.59513C16.3353 2.51428 16.5646 2.51428 16.7818 2.59513L16.8059 2.6086L16.8421 2.62208L16.7939 2.59513C16.9387 2.6625 17.0714 2.7703 17.1679 2.90504L17.18 2.93199L17.2886 3.13411L17.2645 3.08021L17.2765 3.10716L17.2886 3.12064C19.1951 8.26794 20.9689 9.68277 22.8634 8.20056C23.2616 7.90412 23.7926 8.01192 24.0701 8.41616C24.3476 8.83387 23.9736 9.6154 23.8288 9.87142C23.2496 10.3296 22.7428 10.6664 22.1756 10.8146V15.5847H22.6824C23.153 15.5847 23.503 16.2907 23.5271 16.8027C23.5512 17.3013 23.2496 17.6301 22.791 17.684H4.70306C4.24452 17.6974 3.85839 17.3148 3.82219 16.8162ZM10.9174 3.08021V3.32276C10.0727 6.17937 8.7092 7.9176 7.26119 8.41616V15.5847H10.0607V10.5721C9.5056 10.4374 9.59006 10.6125 9.01086 10.1544C8.6368 9.84447 8.57646 8.83387 8.854 8.41616C9.13153 7.99845 9.67453 7.90412 10.0607 8.20056C11.2915 9.17074 12.474 8.98209 13.6686 7.27082C12.8843 6.50276 11.9913 5.03403 10.9777 3.08021H10.9174Z" fill="white"/>
</g>
</g>
<defs>
<filter id="filter0_d_562_1329" x="0.00010252" y="0" width="27.3396" height="24.024" filterUnits="userSpaceOnUse" color-interpolation-filters="sRGB">
<feFlood flood-opacity="0" result="BackgroundImageFix"/>
<feColorMatrix in="SourceAlpha" type="matrix" values="0 0 0 0 0 0 0 0 0 0 0 0 0 0 0 0 0 0 127 0" result="hardAlpha"/>
<feOffset dy="3.16982"/>
<feGaussianBlur stdDeviation="1.58491"/>
<feComposite in2="hardAlpha" operator="out"/>
<feColorMatrix type="matrix" values="0 0 0 0 0 0 0 0 0 0 0 0 0 0 0 0 0 0 0.1 0"/>
<feBlend mode="normal" in2="BackgroundImageFix" result="effect1_dropShadow_562_1329"/>
<feBlend mode="normal" in="SourceGraphic" in2="effect1_dropShadow_562_1329" result="shape"/>
</filter>
<filter id="filter1_d_562_1329" x="0.95939" y="0" width="25.4211" height="22.1054" filterUnits="userSpaceOnUse" color-interpolation-filters="sRGB">
<feFlood flood-opacity="0" result="BackgroundImageFix"/>
<feColorMatrix in="SourceAlpha" type="matrix" values="0 0 0 0 0 0 0 0 0 0 0 0 0 0 0 0 0 0 127 0" result="hardAlpha"/>
<feOffset dy="2.21053"/>
<feGaussianBlur stdDeviation="1.10527"/>
<feComposite in2="hardAlpha" operator="out"/>
<feColorMatrix type="matrix" values="0 0 0 0 0.101961 0 0 0 0 0.290196 0 0 0 0 0.141176 0 0 0 0.25 0"/>
<feBlend mode="normal" in2="BackgroundImageFix" result="effect1_dropShadow_562_1329"/>
<feBlend mode="normal" in="SourceGraphic" in2="effect1_dropShadow_562_1329" result="shape"/>
</filter>
</defs>
</svg>
