<svg width="25" height="24" viewBox="0 0 25 24" fill="none" xmlns="http://www.w3.org/2000/svg">
<g filter="url(#filter0_d_677_2907)">
<path d="M9.98774 14.579H14.9553V17.4948H9.98774V14.579Z" fill="white"/>
<path d="M3.50634 0H21.4328C22.1485 0 22.7287 0.580235 22.7287 1.29589V14.2538C22.7287 14.9695 22.1485 15.5497 21.4328 15.5497H3.50634C2.79068 15.5497 2.21045 14.9695 2.21045 14.2538L2.21045 1.29589C2.21045 0.580235 2.79068 0 3.50634 0ZM3.29036 1.07991V14.4698H21.6488V1.07991H3.29036ZM7.61 17.0616H17.3292C17.4001 17.0616 17.4703 17.0756 17.5358 17.1027C17.6013 17.1298 17.6609 17.1696 17.711 17.2198C17.7611 17.2699 17.8009 17.3294 17.828 17.3949C17.8552 17.4604 17.8691 17.5307 17.8691 17.6016V18.7895H7.07004V17.6016C7.07004 17.5307 7.08401 17.4604 7.11114 17.3949C7.13828 17.3294 7.17805 17.2699 7.22819 17.2198C7.27833 17.1696 7.33786 17.1298 7.40337 17.1027C7.46888 17.0756 7.53909 17.0616 7.61 17.0616Z" fill="white"/>
<path d="M12.6495 7.50191C12.4318 7.50191 12.2685 7.68338 12.2685 7.89887V13.0933C12.2685 13.3201 12.4427 13.4902 12.6495 13.4902C12.8672 13.4902 13.0304 13.3088 13.0304 13.0933V7.89887C13.0304 7.68338 12.8563 7.50191 12.6495 7.50191ZM9.98281 6.02751L9.19914 5.88007V5.40373C9.19914 5.29031 9.11207 5.19958 9.00322 5.19958C8.89438 5.19958 8.8073 5.29031 8.8073 5.40373V5.81202L8.78553 6.01617C8.55696 7.3885 9.4386 8.69277 10.7447 8.94229L11.7243 9.12375C11.8332 9.14644 11.9311 9.06705 11.942 8.96497C12.1815 7.59265 11.2998 6.27703 9.98281 6.02751ZM9.98281 9.11241L9.21002 8.96497V8.54533C9.21002 8.43192 9.12295 8.34119 9.01411 8.34119C8.90526 8.34119 8.81819 8.43192 8.81819 8.54533V8.88558L8.78553 9.07839C8.55696 10.4507 9.4386 11.755 10.7447 12.0045L11.7243 12.186C11.8332 12.2087 11.9311 12.1293 11.942 12.0272C12.1815 10.6662 11.2998 9.35058 9.98281 9.11241ZM13.3461 8.96497C13.3679 9.07839 13.4658 9.14644 13.5638 9.12375L14.5434 8.94229C15.8604 8.69277 16.7311 7.3885 16.5026 6.01617L16.4699 5.82337V5.41507C16.4699 5.30165 16.3828 5.21092 16.274 5.21092C16.1651 5.21092 16.0781 5.30165 16.0781 5.41507V5.89141L15.2944 6.03885C13.9991 6.27703 13.1175 7.5813 13.3461 8.96497ZM16.4808 8.89692V8.54533C16.4808 8.43192 16.3937 8.34119 16.2849 8.34119C16.176 8.34119 16.0889 8.43192 16.0889 8.54533V8.96497L15.3053 9.11241C13.9883 9.35058 13.1066 10.6662 13.3461 12.0385C13.3679 12.1519 13.4658 12.22 13.5638 12.1973L14.5434 12.0158C15.8604 11.7663 16.7311 10.4621 16.5026 9.08973L16.4808 8.89692ZM12.5842 7.18435C12.6713 7.24106 12.791 7.21837 12.8454 7.1163L13.3679 6.243C14.0427 5.12019 13.7706 3.64579 12.7366 2.86322V2.3642C12.7366 2.25078 12.6604 2.16005 12.5515 2.16005C12.4427 2.16005 12.3556 2.23944 12.3556 2.35285V2.78383L11.8114 3.7025C11.1039 4.88202 11.4413 6.44715 12.5842 7.18435C12.5733 7.18435 12.5733 7.18435 12.5842 7.18435Z" fill="white"/>
</g>
<defs>
<filter id="filter0_d_677_2907" x="-7.53403e-05" y="0" width="24.9391" height="23.2105" filterUnits="userSpaceOnUse" color-interpolation-filters="sRGB">
<feFlood flood-opacity="0" result="BackgroundImageFix"/>
<feColorMatrix in="SourceAlpha" type="matrix" values="0 0 0 0 0 0 0 0 0 0 0 0 0 0 0 0 0 0 127 0" result="hardAlpha"/>
<feOffset dy="2.21052"/>
<feGaussianBlur stdDeviation="1.10526"/>
<feComposite in2="hardAlpha" operator="out"/>
<feColorMatrix type="matrix" values="0 0 0 0 0.101961 0 0 0 0 0.290196 0 0 0 0 0.141176 0 0 0 0.25 0"/>
<feBlend mode="normal" in2="BackgroundImageFix" result="effect1_dropShadow_677_2907"/>
<feBlend mode="normal" in="SourceGraphic" in2="effect1_dropShadow_677_2907" result="shape"/>
</filter>
</defs>
</svg>
