<svg width="42" height="42" viewBox="0 0 42 42" fill="none" xmlns="http://www.w3.org/2000/svg">
<rect x="7.13281" y="7.13184" width="34.8677" height="34.8679" rx="9.50523" fill="#0167ED"/>
<foreignObject x="-13.2631" y="-13.2631" width="64.5637" height="64.5639"><div xmlns="http://www.w3.org/1999/xhtml" style="backdrop-filter:blur(6.63px);clip-path:url(#bgblur_0_562_2864_clip_path);height:100%;width:100%"></div></foreignObject><g data-figma-bg-blur-radius="13.2631">
<rect width="38.0375" height="38.0377" rx="9" fill="white" fill-opacity="0.1"/>
<rect x="0.552629" y="0.552629" width="36.9322" height="36.9324" rx="8.44737" stroke="url(#paint0_linear_562_2864)" stroke-opacity="0.3" stroke-width="1.10526"/>
</g>
<g filter="url(#filter1_d_562_2864)">
<path d="M19.4517 28.0622C21.2699 28.065 23.0346 27.4465 24.4531 26.3092L26.4009 27.1472C24.5468 28.9686 22.0507 29.9876 19.4517 29.9844C16.8483 29.9876 14.3485 28.9651 12.4936 27.1383L14.4375 26.2989C15.8582 27.4427 17.6279 28.0651 19.4517 28.0622ZM29.3828 20.0532C29.3828 20.5145 29.352 20.9707 29.2905 21.4166L27.4414 20.6196C27.5588 18.9633 27.1587 17.3115 26.2965 15.8926C25.4343 14.4737 24.1525 13.3577 22.6284 12.6989V10.6396C24.5972 11.305 26.3078 12.5709 27.5194 14.2593C28.7311 15.9478 29.3828 17.9737 29.3828 20.0519V20.0532ZM16.2213 10.6602V12.7233C14.7138 13.388 13.448 14.5014 12.5964 15.9117C11.7447 17.322 11.3486 18.9606 11.4621 20.6042L9.61168 21.4038C9.29915 19.1248 9.78709 16.8081 10.9922 14.8488C12.1974 12.8894 14.0451 11.409 16.22 10.6602H16.2213Z" fill="white"/>
</g>
<g filter="url(#filter2_d_562_2864)">
<mask id="mask0_562_2864" style="mask-type:alpha" maskUnits="userSpaceOnUse" x="10" y="14" width="19" height="13">
<path d="M18.2896 24.5364L11.0404 25.1954L10.7109 26.5135L11.6995 17.4518C13.5667 16.628 17.367 14.9805 17.6306 14.9805H24.8798L27.5159 16.9576L28.1749 21.5708L26.5274 25.5249L24.2208 24.5364H20.9257H18.2896Z" fill="white"/>
</mask>
<g mask="url(#mask0_562_2864)">
<path d="M19.2765 30.1375C17.6617 30.1606 16.0515 29.9594 14.4921 29.5395C12.4514 28.9307 12.0273 28.0681 12.0273 27.452C12.0273 26.8359 12.455 25.9698 14.4848 25.3645C15.8099 24.9966 17.1766 24.7993 18.5516 24.7774L18.5879 24.4585C18.5879 24.2447 18.5879 24.0417 18.6205 23.8352C18.6205 22.7479 17.8956 21.8963 17.4425 21.8963H17.3954C16.9794 22.091 16.5279 22.1983 16.0688 22.2116C15.8505 22.2128 15.6331 22.1822 15.4236 22.121C15.153 22.0452 14.9038 21.9075 14.6955 21.7188C14.4873 21.5301 14.3258 21.2956 14.2239 21.0337C13.9955 20.4176 13.093 20.1386 12.9879 20.1096C12.8406 20.0766 12.7073 19.9984 12.6066 19.886C12.5059 19.7736 12.4428 19.6326 12.426 19.4826C12.4296 19.3289 12.4837 19.1806 12.58 19.0607C12.6763 18.9408 12.8095 18.856 12.9589 18.8194C13.6391 18.5953 14.3487 18.4731 15.0648 18.457C15.6998 18.4356 16.328 18.5939 16.8771 18.9136C17.2444 19.147 17.5483 19.4678 17.7614 19.8472C17.9746 20.2266 18.0904 20.653 18.0985 21.0881C18.4177 21.2904 18.6946 21.5525 18.9141 21.86C18.9252 21.8707 18.939 21.8782 18.954 21.8818C18.965 21.8812 18.9756 21.8775 18.9846 21.8711C18.9936 21.8646 19.0006 21.8558 19.0047 21.8455C19.1036 21.527 19.2247 21.2157 19.3672 20.9141C19.5387 20.5421 19.7594 20.1947 20.0232 19.8813C20.0248 19.868 20.0248 19.8546 20.0232 19.8414C20.0227 19.8341 20.0204 19.827 20.0166 19.8207C20.0129 19.8144 20.0077 19.8091 20.0015 19.8052C19.9181 19.751 19.8382 19.6917 19.7622 19.6276C19.6673 19.5518 19.591 19.4552 19.5395 19.3452C19.488 19.2352 19.4625 19.1148 19.465 18.9934C19.465 18.9136 19.465 16.9929 20.9765 16.0941C21.4834 15.7882 22.0663 15.6312 22.6583 15.6411C23.6188 15.6411 24.7642 15.9817 26.0654 16.6522C26.2039 16.7231 26.3189 16.8324 26.3968 16.9671C26.4746 17.1017 26.5119 17.2559 26.5043 17.4113C26.4966 17.5666 26.4443 17.7165 26.3536 17.8428C26.2629 17.9691 26.1377 18.0666 25.9929 18.1236C25.0764 18.5063 24.2402 19.0583 23.5282 19.7508C23.1748 20.1352 22.6949 20.3796 22.1762 20.4394H21.9116C21.5955 20.436 21.2821 20.3809 20.9837 20.2763C20.6316 20.5345 20.3642 20.8915 20.2153 21.3019C19.7307 22.369 19.4999 23.5338 19.5411 24.705C21.0643 24.7423 22.5777 24.9588 24.0501 25.35C26.0835 25.9553 26.5076 26.8214 26.5076 27.4375C26.5076 28.0536 26.0835 28.9162 24.0501 29.525C22.4949 29.9488 20.8884 30.155 19.2765 30.1375ZM15.6991 26.006C15.3765 26.0712 15.0829 26.1474 14.8219 26.2235C13.7055 26.5569 13.0676 27.0063 13.0676 27.452C13.0676 27.8978 13.7055 28.3472 14.8183 28.6879C16.272 29.0745 17.7726 29.2563 19.2765 29.2278C20.7732 29.2535 22.2662 29.0718 23.7131 28.6879C24.8258 28.3581 25.4637 27.9087 25.4637 27.4629C25.4637 27.0171 24.8258 26.5677 23.7131 26.2343C23.4557 26.1582 23.1585 26.0857 22.8359 26.0169C22.8359 26.0169 22.7815 26.0169 22.7779 26.0459C22.7711 26.0547 22.7675 26.0655 22.7675 26.0767C22.7675 26.0878 22.7711 26.0986 22.7779 26.1075C22.8997 26.1969 23.0002 26.3122 23.0723 26.445C23.1443 26.5778 23.1862 26.7249 23.1947 26.8758C23.1947 28.0138 21.1577 28.5284 19.2657 28.5284C17.3736 28.5284 15.3366 28.0101 15.3366 26.8758C15.3423 26.7245 15.3818 26.5763 15.452 26.4422C15.5222 26.308 15.6215 26.1912 15.7426 26.1002C15.7481 26.0801 15.7481 26.0588 15.7426 26.0386C15.7384 26.0298 15.7317 26.0223 15.7233 26.0171C15.7149 26.012 15.7053 26.0094 15.6954 26.0096L15.6991 26.006ZM20.6756 19.9248C21.3571 17.6343 23.6623 16.6015 26.4134 17.348C26.4246 17.3513 26.4363 17.3523 26.4479 17.351C26.4595 17.3496 26.4707 17.346 26.4808 17.3402C26.4909 17.3345 26.4998 17.3268 26.5069 17.3175C26.514 17.3083 26.5192 17.2977 26.5221 17.2864C26.5288 17.2633 26.5261 17.2385 26.5146 17.2175C26.503 17.1964 26.4836 17.1808 26.4605 17.1741C23.6261 16.3985 21.2157 17.4821 20.5053 19.8704C20.5014 19.8816 20.4998 19.8934 20.5006 19.9052C20.5014 19.917 20.5046 19.9285 20.5101 19.9391C20.5155 19.9496 20.523 19.9589 20.5322 19.9664C20.5413 19.9739 20.5519 19.9795 20.5633 19.9827H20.5886C20.6074 19.9832 20.6258 19.9779 20.6414 19.9676C20.6569 19.9572 20.6689 19.9422 20.6756 19.9248ZM17.776 21.6933C17.7869 21.6886 17.7969 21.6817 17.8052 21.6732C17.8135 21.6646 17.82 21.6544 17.8244 21.6433C17.8288 21.6322 17.8309 21.6203 17.8307 21.6084C17.8305 21.5965 17.8279 21.5847 17.8231 21.5737C17.283 20.3125 15.2424 18.8013 12.4043 19.3993C12.3926 19.4018 12.3816 19.4067 12.3718 19.4136C12.362 19.4204 12.3536 19.4292 12.3472 19.4393C12.3408 19.4494 12.3365 19.4607 12.3344 19.4725C12.3324 19.4842 12.3328 19.4963 12.3354 19.508C12.3407 19.5308 12.3545 19.5508 12.3741 19.5636C12.3937 19.5764 12.4175 19.5812 12.4405 19.5768C15.1807 19.0079 17.1525 20.4466 17.66 21.6535C17.6668 21.6691 17.6779 21.6825 17.692 21.6921C17.7061 21.7018 17.7226 21.7072 17.7397 21.7078L17.776 21.6933Z" fill="white"/>
</g>
</g>
<g filter="url(#filter3_d_562_2864)">
<path d="M9 23.9145C9 24.5942 9.27001 25.2461 9.75064 25.7268C10.2313 26.2074 10.8831 26.4774 11.5628 26.4774C12.2426 26.4774 12.8944 26.2074 13.3751 25.7268C13.8557 25.2461 14.1257 24.5942 14.1257 23.9145C14.1257 23.2348 13.8557 22.5829 13.3751 22.1023C12.8944 21.6216 12.2426 21.3516 11.5628 21.3516C10.8831 21.3516 10.2313 21.6216 9.75064 22.1023C9.27001 22.5829 9 23.2348 9 23.9145Z" fill="white"/>
</g>
<g filter="url(#filter4_d_562_2864)">
<path d="M24.2576 23.9145C24.2576 24.2511 24.3239 24.5844 24.4527 24.8953C24.5814 25.2062 24.7702 25.4888 25.0082 25.7268C25.2462 25.9647 25.5287 26.1535 25.8397 26.2823C26.1506 26.4111 26.4839 26.4774 26.8204 26.4774C27.157 26.4774 27.4902 26.4111 27.8012 26.2823C28.1121 26.1535 28.3946 25.9647 28.6326 25.7268C28.8706 25.4888 29.0594 25.2062 29.1882 24.8953C29.317 24.5844 29.3833 24.2511 29.3833 23.9145C29.3833 23.578 29.317 23.2447 29.1882 22.9337C29.0594 22.6228 28.8706 22.3403 28.6326 22.1023C28.3946 21.8643 28.1121 21.6755 27.8012 21.5467C27.4902 21.4179 27.157 21.3516 26.8204 21.3516C26.4839 21.3516 26.1506 21.4179 25.8397 21.5467C25.5287 21.6755 25.2462 21.8643 25.0082 22.1023C24.7702 22.3403 24.5814 22.6228 24.4527 22.9337C24.3239 23.2447 24.2576 23.578 24.2576 23.9145Z" fill="white"/>
</g>
<g filter="url(#filter5_d_562_2864)">
<path d="M16.8906 11.5629C16.8906 12.2426 17.1606 12.8945 17.6413 13.3751C18.1219 13.8558 18.7738 14.1258 19.4535 14.1258C20.1332 14.1258 20.7851 13.8558 21.2657 13.3751C21.7463 12.8945 22.0163 12.2426 22.0163 11.5629C22.0163 10.8832 21.7463 10.2313 21.2657 9.75065C20.7851 9.27002 20.1332 9 19.4535 9C18.7738 9 18.1219 9.27002 17.6413 9.75065C17.1606 10.2313 16.8906 10.8832 16.8906 11.5629Z" fill="white"/>
</g>
<defs>
<clipPath id="bgblur_0_562_2864_clip_path" transform="translate(13.2631 13.2631)"><rect width="38.0375" height="38.0377" rx="9"/>
</clipPath><filter id="filter1_d_562_2864" x="7.30901" y="10.6396" width="24.2843" height="23.7658" filterUnits="userSpaceOnUse" color-interpolation-filters="sRGB">
<feFlood flood-opacity="0" result="BackgroundImageFix"/>
<feColorMatrix in="SourceAlpha" type="matrix" values="0 0 0 0 0 0 0 0 0 0 0 0 0 0 0 0 0 0 127 0" result="hardAlpha"/>
<feOffset dy="2.21052"/>
<feGaussianBlur stdDeviation="1.10526"/>
<feComposite in2="hardAlpha" operator="out"/>
<feColorMatrix type="matrix" values="0 0 0 0 0.101961 0 0 0 0 0.290196 0 0 0 0 0.141176 0 0 0 0.25 0"/>
<feBlend mode="normal" in2="BackgroundImageFix" result="effect1_dropShadow_562_2864"/>
<feBlend mode="normal" in="SourceGraphic" in2="effect1_dropShadow_562_2864" result="shape"/>
</filter>
<filter id="filter2_d_562_2864" x="9.81682" y="15.6406" width="18.9195" height="15.2939" filterUnits="userSpaceOnUse" color-interpolation-filters="sRGB">
<feFlood flood-opacity="0" result="BackgroundImageFix"/>
<feColorMatrix in="SourceAlpha" type="matrix" values="0 0 0 0 0 0 0 0 0 0 0 0 0 0 0 0 0 0 127 0" result="hardAlpha"/>
<feOffset dy="2.21052"/>
<feGaussianBlur stdDeviation="1.10526"/>
<feComposite in2="hardAlpha" operator="out"/>
<feColorMatrix type="matrix" values="0 0 0 0 0.101961 0 0 0 0 0.290196 0 0 0 0 0.141176 0 0 0 0.25 0"/>
<feBlend mode="normal" in2="BackgroundImageFix" result="effect1_dropShadow_562_2864"/>
<feBlend mode="normal" in="SourceGraphic" in2="effect1_dropShadow_562_2864" result="shape"/>
</filter>
<filter id="filter3_d_562_2864" x="6.78948" y="21.3516" width="9.54678" height="9.54684" filterUnits="userSpaceOnUse" color-interpolation-filters="sRGB">
<feFlood flood-opacity="0" result="BackgroundImageFix"/>
<feColorMatrix in="SourceAlpha" type="matrix" values="0 0 0 0 0 0 0 0 0 0 0 0 0 0 0 0 0 0 127 0" result="hardAlpha"/>
<feOffset dy="2.21052"/>
<feGaussianBlur stdDeviation="1.10526"/>
<feComposite in2="hardAlpha" operator="out"/>
<feColorMatrix type="matrix" values="0 0 0 0 0.101961 0 0 0 0 0.290196 0 0 0 0 0.141176 0 0 0 0.25 0"/>
<feBlend mode="normal" in2="BackgroundImageFix" result="effect1_dropShadow_562_2864"/>
<feBlend mode="normal" in="SourceGraphic" in2="effect1_dropShadow_562_2864" result="shape"/>
</filter>
<filter id="filter4_d_562_2864" x="22.047" y="21.3516" width="9.54678" height="9.54684" filterUnits="userSpaceOnUse" color-interpolation-filters="sRGB">
<feFlood flood-opacity="0" result="BackgroundImageFix"/>
<feColorMatrix in="SourceAlpha" type="matrix" values="0 0 0 0 0 0 0 0 0 0 0 0 0 0 0 0 0 0 127 0" result="hardAlpha"/>
<feOffset dy="2.21052"/>
<feGaussianBlur stdDeviation="1.10526"/>
<feComposite in2="hardAlpha" operator="out"/>
<feColorMatrix type="matrix" values="0 0 0 0 0.101961 0 0 0 0 0.290196 0 0 0 0 0.141176 0 0 0 0.25 0"/>
<feBlend mode="normal" in2="BackgroundImageFix" result="effect1_dropShadow_562_2864"/>
<feBlend mode="normal" in="SourceGraphic" in2="effect1_dropShadow_562_2864" result="shape"/>
</filter>
<filter id="filter5_d_562_2864" x="14.6801" y="9" width="9.54678" height="9.54684" filterUnits="userSpaceOnUse" color-interpolation-filters="sRGB">
<feFlood flood-opacity="0" result="BackgroundImageFix"/>
<feColorMatrix in="SourceAlpha" type="matrix" values="0 0 0 0 0 0 0 0 0 0 0 0 0 0 0 0 0 0 127 0" result="hardAlpha"/>
<feOffset dy="2.21052"/>
<feGaussianBlur stdDeviation="1.10526"/>
<feComposite in2="hardAlpha" operator="out"/>
<feColorMatrix type="matrix" values="0 0 0 0 0.101961 0 0 0 0 0.290196 0 0 0 0 0.141176 0 0 0 0.25 0"/>
<feBlend mode="normal" in2="BackgroundImageFix" result="effect1_dropShadow_562_2864"/>
<feBlend mode="normal" in="SourceGraphic" in2="effect1_dropShadow_562_2864" result="shape"/>
</filter>
<linearGradient id="paint0_linear_562_2864" x1="4.75468" y1="1.5849" x2="33.6792" y2="35.6602" gradientUnits="userSpaceOnUse">
<stop stop-color="#0167ED"/>
<stop offset="1" stop-color="white"/>
</linearGradient>
</defs>
</svg>
