<svg width="24" height="26" viewBox="0 0 24 26" fill="none" xmlns="http://www.w3.org/2000/svg">
<g filter="url(#filter0_d_562_1347)">
<path d="M7.33672 3.11119C9.64026 0.811206 13.4872 0.906491 15.8927 3.30176L16.88 2.31605C13.9018 -0.67721 9.14006 -0.772495 6.33304 2.04991L7.37621 3.09147L7.33672 3.11119ZM20.8815 18.9515L18.6603 14.6111C18.3641 14.0788 17.7356 13.4907 17.0445 13.4545H12.2564V12.574H13.1416C14.303 12.5731 15.4166 12.1121 16.2378 11.2921C17.059 10.4722 17.5208 9.36031 17.5217 8.20072V6.00259H15.3201C14.5743 6.0035 13.8411 6.19438 13.1898 6.55717C12.5386 6.91997 11.9908 7.44269 11.5983 8.07586C11.2058 7.44269 10.658 6.91997 10.0067 6.55717C9.35542 6.19438 8.62219 6.0035 7.87641 6.00259H5.67488V8.20072C5.67575 9.36031 6.1375 10.4722 6.95872 11.2921C7.77995 12.1121 8.89351 12.5731 10.0549 12.574H10.9401V13.4512H6.20799C5.58603 13.4512 4.918 14.023 4.5626 14.5848L2.36436 18.8825C2.26346 19.0615 2.21045 19.2635 2.21045 19.469C2.21045 19.6744 2.26346 19.8764 2.36436 20.0555C2.48748 20.2499 2.65956 20.4087 2.86342 20.516C3.06727 20.6232 3.29575 20.6752 3.52601 20.6666H19.7133C19.9263 20.6779 20.1387 20.6354 20.3309 20.5429C20.523 20.4505 20.6886 20.311 20.8124 20.1376C20.922 19.9613 20.9857 19.7605 20.9978 19.5533C21.0099 19.3462 20.9699 19.1393 20.8815 18.9515ZM12.2564 10.3791C12.2573 9.5678 12.5803 8.7899 13.1545 8.2159C13.7288 7.6419 14.5076 7.3186 15.3201 7.31687H16.2054V8.20072C16.2045 9.01174 15.8814 9.7893 15.3071 10.3628C14.7327 10.9363 13.9539 11.2588 13.1416 11.2597H12.2564V10.3791ZM10.0549 11.2597C9.24262 11.2588 8.46386 10.9363 7.88949 10.3628C7.31512 9.7893 6.99206 9.01174 6.99119 8.20072V7.31687H7.87641C8.68899 7.3186 9.46774 7.6419 10.042 8.2159C10.6163 8.7899 10.9392 9.5678 10.9401 10.3791V11.2597H10.0549ZM12.2564 14.7655H16.9787C17.1987 14.8564 17.3818 15.0184 17.4986 15.2255L18.1041 16.4084H12.2564V14.7655ZM10.9401 19.3655H3.60499L4.44413 17.7226H10.9401V19.3655ZM10.9401 16.4084H5.11874L5.71108 15.2485C5.83708 15.0408 6.01971 14.8733 6.2376 14.7655H10.9401V16.4084ZM12.2564 19.3655V17.7226H18.7754L19.6179 19.3655H12.2564Z" fill="white"/>
</g>
<defs>
<filter id="filter0_d_562_1347" x="-7.53403e-05" y="0" width="23.2106" height="25.0894" filterUnits="userSpaceOnUse" color-interpolation-filters="sRGB">
<feFlood flood-opacity="0" result="BackgroundImageFix"/>
<feColorMatrix in="SourceAlpha" type="matrix" values="0 0 0 0 0 0 0 0 0 0 0 0 0 0 0 0 0 0 127 0" result="hardAlpha"/>
<feOffset dy="2.21052"/>
<feGaussianBlur stdDeviation="1.10526"/>
<feComposite in2="hardAlpha" operator="out"/>
<feColorMatrix type="matrix" values="0 0 0 0 0.101961 0 0 0 0 0.290196 0 0 0 0 0.141176 0 0 0 0.25 0"/>
<feBlend mode="normal" in2="BackgroundImageFix" result="effect1_dropShadow_562_1347"/>
<feBlend mode="normal" in="SourceGraphic" in2="effect1_dropShadow_562_1347" result="shape"/>
</filter>
</defs>
</svg>
