<svg width="25" height="26" viewBox="0 0 25 26" fill="none" xmlns="http://www.w3.org/2000/svg">
<g filter="url(#filter0_d_562_1363)">
<path d="M12.6622 19.0622C14.4804 19.065 16.245 18.4465 17.6636 17.3092L19.6113 18.1472C17.7572 19.9686 15.2612 20.9876 12.6622 20.9844C10.0588 20.9876 7.55894 19.9651 5.70405 18.1383L7.64797 17.2989C9.0686 18.4427 10.8383 19.0651 12.6622 19.0622ZM22.5932 11.0532C22.5932 11.5145 22.5625 11.9707 22.501 12.4166L20.6519 11.6196C20.7693 9.96333 20.3692 8.31154 19.507 6.8926C18.6447 5.47365 17.3629 4.35766 15.8388 3.69893V1.63965C17.8076 2.30495 19.5182 3.57091 20.7299 5.25935C21.9415 6.94778 22.5932 8.97367 22.5932 11.0519V11.0532ZM9.43171 1.66015V3.72328C7.92429 4.38802 6.6585 5.5014 5.80683 6.91169C4.95517 8.32198 4.55907 9.96058 4.6725 11.6042L2.82213 12.4038C2.5096 10.1248 2.99753 7.80806 4.20268 5.84875C5.40783 3.88945 7.2555 2.40904 9.43043 1.66015H9.43171Z" fill="white"/>
</g>
<g filter="url(#filter1_d_562_1363)">
<mask id="mask0_562_1363" style="mask-type:alpha" maskUnits="userSpaceOnUse" x="3" y="5" width="19" height="13">
<path d="M11.5001 15.5364L4.2509 16.1954L3.92139 17.5135L4.90991 8.45183C6.77713 7.62804 10.5775 5.98047 10.8411 5.98047H18.0903L20.7263 7.95756L21.3854 12.5708L19.7378 16.5249L17.4313 15.5364H14.1362H11.5001Z" fill="white"/>
</mask>
<g mask="url(#mask0_562_1363)">
<path d="M12.487 21.1375C10.8722 21.1606 9.26197 20.9594 7.70252 20.5395C5.66187 19.9307 5.23779 19.0681 5.23779 18.452C5.23779 17.8359 5.6655 16.9698 7.69527 16.3645C9.02035 15.9966 10.387 15.7993 11.7621 15.7774L11.7983 15.4585C11.7983 15.2447 11.7983 15.0417 11.8309 14.8352C11.8309 13.7479 11.106 12.8963 10.6529 12.8963H10.6058C10.1899 13.091 9.73834 13.1983 9.27922 13.2116C9.06091 13.2128 8.84358 13.1822 8.63404 13.121C8.36345 13.0452 8.1142 12.9075 7.90598 12.7188C7.69776 12.5301 7.53628 12.2956 7.4343 12.0337C7.20595 11.4176 6.30343 11.1386 6.19831 11.1096C6.05104 11.0766 5.91776 10.9984 5.81705 10.886C5.71633 10.7736 5.65322 10.6326 5.6365 10.4826C5.64005 10.3289 5.69416 10.1806 5.79048 10.0607C5.88679 9.94083 6.01994 9.85602 6.16932 9.81941C6.84952 9.59525 7.55919 9.47312 8.27521 9.457C8.91026 9.43557 9.53845 9.59385 10.0875 9.91363C10.4549 10.147 10.7587 10.4678 10.9719 10.8472C11.185 11.2266 11.3008 11.653 11.309 12.0881C11.6281 12.2904 11.905 12.5525 12.1245 12.86C12.1357 12.8707 12.1494 12.8782 12.1644 12.8818C12.1754 12.8812 12.1861 12.8775 12.1951 12.8711C12.2041 12.8646 12.211 12.8558 12.2151 12.8455C12.314 12.527 12.4351 12.2157 12.5776 11.9141C12.7492 11.5421 12.9698 11.1947 13.2337 10.8813C13.2353 10.868 13.2353 10.8546 13.2337 10.8414C13.2331 10.8341 13.2309 10.827 13.2271 10.8207C13.2233 10.8144 13.2181 10.8091 13.2119 10.8052C13.1286 10.751 13.0487 10.6917 12.9727 10.6276C12.8777 10.5518 12.8015 10.4552 12.75 10.3452C12.6984 10.2352 12.6729 10.1148 12.6755 9.99336C12.6755 9.91363 12.6755 7.99286 14.1869 7.09408C14.6939 6.78819 15.2767 6.6312 15.8687 6.64106C16.8293 6.64106 17.9746 6.98173 19.2759 7.65219C19.4143 7.72308 19.5294 7.83241 19.6072 7.96706C19.6851 8.1017 19.7224 8.25595 19.7147 8.41128C19.7071 8.56662 19.6548 8.71645 19.5641 8.8428C19.4734 8.96914 19.3481 9.06663 19.2034 9.12358C18.2868 9.50627 17.4506 10.0583 16.7386 10.7508C16.3853 11.1352 15.9054 11.3796 15.3867 11.4394H15.1221C14.806 11.436 14.4925 11.3809 14.1942 11.2763C13.8421 11.5345 13.5746 11.8915 13.4258 12.3019C12.9411 13.369 12.7104 14.5338 12.7516 15.705C14.2747 15.7423 15.7881 15.9588 17.2606 16.35C19.294 16.9553 19.7181 17.8214 19.7181 18.4375C19.7181 19.0536 19.294 19.9162 17.2606 20.525C15.7054 20.9488 14.0989 21.155 12.487 21.1375ZM8.90951 17.006C8.58692 17.0712 8.29333 17.1474 8.03236 17.2235C6.91598 17.5569 6.27805 18.0063 6.27805 18.452C6.27805 18.8978 6.91598 19.3472 8.02874 19.6879C9.48243 20.0745 10.983 20.2563 12.487 20.2278C13.9837 20.2535 15.4767 20.0718 16.9235 19.6879C18.0363 19.3581 18.6742 18.9087 18.6742 18.4629C18.6742 18.0171 18.0363 17.5677 16.9235 17.2343C16.6662 17.1582 16.3689 17.0857 16.0464 17.0169C16.0464 17.0169 15.992 17.0169 15.9884 17.0459C15.9816 17.0547 15.9779 17.0655 15.9779 17.0767C15.9779 17.0878 15.9816 17.0986 15.9884 17.1075C16.1101 17.1969 16.2107 17.3122 16.2827 17.445C16.3548 17.5778 16.3966 17.7249 16.4052 17.8758C16.4052 19.0138 14.3682 19.5284 12.4761 19.5284C10.5841 19.5284 8.54705 19.0101 8.54705 17.8758C8.55279 17.7245 8.59221 17.5763 8.66244 17.4422C8.73266 17.308 8.83193 17.1912 8.95301 17.1002C8.95856 17.0801 8.95856 17.0588 8.95301 17.0386C8.9488 17.0298 8.94211 17.0223 8.93375 17.0171C8.92538 17.012 8.91571 17.0094 8.90589 17.0096L8.90951 17.006ZM13.8861 10.9248C14.5675 8.63432 16.8728 7.60145 19.6238 8.34802C19.635 8.35131 19.6467 8.35231 19.6583 8.35098C19.6699 8.34964 19.6811 8.34599 19.6913 8.34024C19.7014 8.3345 19.7103 8.32677 19.7174 8.31752C19.7245 8.30827 19.7296 8.29769 19.7326 8.28641C19.7393 8.26334 19.7366 8.23854 19.725 8.21747C19.7135 8.19641 19.694 8.18079 19.6709 8.17406C16.8365 7.3985 14.4262 8.48211 13.7157 10.8704C13.7118 10.8816 13.7102 10.8934 13.711 10.9052C13.7119 10.917 13.7151 10.9285 13.7205 10.9391C13.726 10.9496 13.7335 10.9589 13.7426 10.9664C13.7518 10.9739 13.7624 10.9795 13.7737 10.9827H13.7991C13.8178 10.9832 13.8362 10.9779 13.8518 10.9676C13.8674 10.9572 13.8794 10.9422 13.8861 10.9248ZM10.9864 12.6933C10.9974 12.6886 11.0073 12.6817 11.0156 12.6732C11.0239 12.6646 11.0305 12.6544 11.0349 12.6433C11.0392 12.6322 11.0414 12.6203 11.0411 12.6084C11.0409 12.5965 11.0383 12.5847 11.0335 12.5737C10.4935 11.3125 8.45281 9.80129 5.61475 10.3993C5.60306 10.4018 5.592 10.4067 5.5822 10.4136C5.5724 10.4204 5.56406 10.4292 5.55766 10.4393C5.55125 10.4494 5.54692 10.4607 5.5449 10.4725C5.54288 10.4842 5.54321 10.4963 5.54588 10.508C5.5511 10.5308 5.56497 10.5508 5.58456 10.5636C5.60416 10.5764 5.62797 10.5812 5.651 10.5768C8.3912 10.0079 10.363 11.4466 10.8704 12.6535C10.8772 12.6691 10.8883 12.6825 10.9025 12.6921C10.9166 12.7018 10.9331 12.7072 10.9502 12.7078L10.9864 12.6933Z" fill="white"/>
</g>
</g>
<g filter="url(#filter2_d_562_1363)">
<path d="M2.21045 14.9145C2.21045 15.5942 2.48046 16.2461 2.96109 16.7268C3.44172 17.2074 4.09359 17.4774 4.7733 17.4774C5.45301 17.4774 6.10488 17.2074 6.58551 16.7268C7.06613 16.2461 7.33615 15.5942 7.33615 14.9145C7.33615 14.2348 7.06613 13.5829 6.58551 13.1023C6.10488 12.6216 5.45301 12.3516 4.7733 12.3516C4.09359 12.3516 3.44172 12.6216 2.96109 13.1023C2.48046 13.5829 2.21045 14.2348 2.21045 14.9145Z" fill="white"/>
</g>
<g filter="url(#filter3_d_562_1363)">
<path d="M17.468 14.9145C17.468 15.2511 17.5343 15.5844 17.6631 15.8953C17.7919 16.2062 17.9807 16.4888 18.2187 16.7268C18.4566 16.9647 18.7392 17.1535 19.0501 17.2823C19.361 17.4111 19.6943 17.4774 20.0309 17.4774C20.3674 17.4774 20.7007 17.4111 21.0116 17.2823C21.3226 17.1535 21.6051 16.9647 21.8431 16.7268C22.0811 16.4888 22.2698 16.2062 22.3986 15.8953C22.5274 15.5844 22.5937 15.2511 22.5937 14.9145C22.5937 14.578 22.5274 14.2447 22.3986 13.9337C22.2698 13.6228 22.0811 13.3403 21.8431 13.1023C21.6051 12.8643 21.3226 12.6755 21.0116 12.5467C20.7007 12.4179 20.3674 12.3516 20.0309 12.3516C19.6943 12.3516 19.361 12.4179 19.0501 12.5467C18.7392 12.6755 18.4566 12.8643 18.2187 13.1023C17.9807 13.3403 17.7919 13.6228 17.6631 13.9337C17.5343 14.2447 17.468 14.578 17.468 14.9145Z" fill="white"/>
</g>
<g filter="url(#filter4_d_562_1363)">
<path d="M10.1011 2.56289C10.1011 3.24262 10.3711 3.8945 10.8517 4.37513C11.3323 4.85577 11.9842 5.12579 12.6639 5.12579C13.3436 5.12579 13.9955 4.85577 14.4761 4.37513C14.9568 3.8945 15.2268 3.24262 15.2268 2.56289C15.2268 1.88317 14.9568 1.23129 14.4761 0.750654C13.9955 0.270019 13.3436 0 12.6639 0C11.9842 0 11.3323 0.270019 10.8517 0.750654C10.3711 1.23129 10.1011 1.88317 10.1011 2.56289Z" fill="white"/>
</g>
<defs>
<filter id="filter0_d_562_1363" x="0.519458" y="1.63965" width="24.2843" height="23.7658" filterUnits="userSpaceOnUse" color-interpolation-filters="sRGB">
<feFlood flood-opacity="0" result="BackgroundImageFix"/>
<feColorMatrix in="SourceAlpha" type="matrix" values="0 0 0 0 0 0 0 0 0 0 0 0 0 0 0 0 0 0 127 0" result="hardAlpha"/>
<feOffset dy="2.21052"/>
<feGaussianBlur stdDeviation="1.10526"/>
<feComposite in2="hardAlpha" operator="out"/>
<feColorMatrix type="matrix" values="0 0 0 0 0.101961 0 0 0 0 0.290196 0 0 0 0 0.141176 0 0 0 0.25 0"/>
<feBlend mode="normal" in2="BackgroundImageFix" result="effect1_dropShadow_562_1363"/>
<feBlend mode="normal" in="SourceGraphic" in2="effect1_dropShadow_562_1363" result="shape"/>
</filter>
<filter id="filter1_d_562_1363" x="3.02727" y="6.64062" width="18.9193" height="15.2939" filterUnits="userSpaceOnUse" color-interpolation-filters="sRGB">
<feFlood flood-opacity="0" result="BackgroundImageFix"/>
<feColorMatrix in="SourceAlpha" type="matrix" values="0 0 0 0 0 0 0 0 0 0 0 0 0 0 0 0 0 0 127 0" result="hardAlpha"/>
<feOffset dy="2.21052"/>
<feGaussianBlur stdDeviation="1.10526"/>
<feComposite in2="hardAlpha" operator="out"/>
<feColorMatrix type="matrix" values="0 0 0 0 0.101961 0 0 0 0 0.290196 0 0 0 0 0.141176 0 0 0 0.25 0"/>
<feBlend mode="normal" in2="BackgroundImageFix" result="effect1_dropShadow_562_1363"/>
<feBlend mode="normal" in="SourceGraphic" in2="effect1_dropShadow_562_1363" result="shape"/>
</filter>
<filter id="filter2_d_562_1363" x="-7.34329e-05" y="12.3516" width="9.54678" height="9.54684" filterUnits="userSpaceOnUse" color-interpolation-filters="sRGB">
<feFlood flood-opacity="0" result="BackgroundImageFix"/>
<feColorMatrix in="SourceAlpha" type="matrix" values="0 0 0 0 0 0 0 0 0 0 0 0 0 0 0 0 0 0 127 0" result="hardAlpha"/>
<feOffset dy="2.21052"/>
<feGaussianBlur stdDeviation="1.10526"/>
<feComposite in2="hardAlpha" operator="out"/>
<feColorMatrix type="matrix" values="0 0 0 0 0.101961 0 0 0 0 0.290196 0 0 0 0 0.141176 0 0 0 0.25 0"/>
<feBlend mode="normal" in2="BackgroundImageFix" result="effect1_dropShadow_562_1363"/>
<feBlend mode="normal" in="SourceGraphic" in2="effect1_dropShadow_562_1363" result="shape"/>
</filter>
<filter id="filter3_d_562_1363" x="15.2575" y="12.3516" width="9.54678" height="9.54684" filterUnits="userSpaceOnUse" color-interpolation-filters="sRGB">
<feFlood flood-opacity="0" result="BackgroundImageFix"/>
<feColorMatrix in="SourceAlpha" type="matrix" values="0 0 0 0 0 0 0 0 0 0 0 0 0 0 0 0 0 0 127 0" result="hardAlpha"/>
<feOffset dy="2.21052"/>
<feGaussianBlur stdDeviation="1.10526"/>
<feComposite in2="hardAlpha" operator="out"/>
<feColorMatrix type="matrix" values="0 0 0 0 0.101961 0 0 0 0 0.290196 0 0 0 0 0.141176 0 0 0 0.25 0"/>
<feBlend mode="normal" in2="BackgroundImageFix" result="effect1_dropShadow_562_1363"/>
<feBlend mode="normal" in="SourceGraphic" in2="effect1_dropShadow_562_1363" result="shape"/>
</filter>
<filter id="filter4_d_562_1363" x="7.89055" y="0" width="9.54678" height="9.54684" filterUnits="userSpaceOnUse" color-interpolation-filters="sRGB">
<feFlood flood-opacity="0" result="BackgroundImageFix"/>
<feColorMatrix in="SourceAlpha" type="matrix" values="0 0 0 0 0 0 0 0 0 0 0 0 0 0 0 0 0 0 127 0" result="hardAlpha"/>
<feOffset dy="2.21052"/>
<feGaussianBlur stdDeviation="1.10526"/>
<feComposite in2="hardAlpha" operator="out"/>
<feColorMatrix type="matrix" values="0 0 0 0 0.101961 0 0 0 0 0.290196 0 0 0 0 0.141176 0 0 0 0.25 0"/>
<feBlend mode="normal" in2="BackgroundImageFix" result="effect1_dropShadow_562_1363"/>
<feBlend mode="normal" in="SourceGraphic" in2="effect1_dropShadow_562_1363" result="shape"/>
</filter>
</defs>
</svg>
