<svg width="19" height="15" viewBox="0 0 19 15" fill="none" xmlns="http://www.w3.org/2000/svg">
<path d="M15.8797 12.1727L12.4039 10.2954C12.3049 10.2448 12.1878 10.2617 12.1158 10.329C12.0528 10.3711 12.0167 10.4385 12.0167 10.5143V11.7939H6.35293C3.82266 11.7939 1.76063 9.86601 1.76063 7.50038C1.76063 6.81846 1.93172 6.17023 2.23787 5.59775C2.28289 5.51356 2.30991 5.42097 2.30991 5.31993C2.30991 4.98318 2.03078 4.71378 1.6796 4.71378C1.39144 4.71378 1.15734 4.89058 1.07629 5.14314C0.707112 5.86713 0.5 6.66691 0.5 7.50036C0.5 10.5058 3.13832 12.9725 6.35293 12.9725H12.0167V14.2521C12.0167 14.3279 12.0618 14.3952 12.1158 14.4373C12.1968 14.5047 12.3139 14.5215 12.4039 14.471L15.8707 12.602C15.9517 12.56 15.9967 12.4674 15.9967 12.3832C16.0057 12.299 15.9607 12.2148 15.8797 12.1727ZM12.6561 2.02825H7.46048V0.748616C7.46048 0.67284 7.41546 0.605491 7.36144 0.563406C7.28039 0.496073 7.16334 0.47922 7.07328 0.529731L3.59754 2.4071C3.51651 2.44918 3.47148 2.54178 3.47148 2.62596C3.46247 2.71015 3.5075 2.79434 3.59754 2.84485L7.07328 4.71378C7.17233 4.76431 7.28938 4.74746 7.36144 4.68013C7.42446 4.63803 7.46048 4.57068 7.46048 4.49492V3.20686H12.6561C15.1863 3.20686 17.2483 5.13472 17.2483 7.50036C17.2483 7.88759 17.1943 8.25804 17.0863 8.61162C17.0683 8.67056 17.0502 8.73789 17.0502 8.80526C17.0502 9.142 17.3294 9.4114 17.6806 9.4114C18.0137 9.4114 18.2839 9.15884 18.3109 8.84734H18.3199C18.4369 8.41798 18.5 7.9718 18.5 7.50877C18.509 4.49492 15.8797 2.02825 12.6561 2.02825Z" fill="#0B4CA1" stroke="#0B4CA1"/>
</svg>
