<svg width="12" height="12" viewBox="0 0 12 12" fill="none" xmlns="http://www.w3.org/2000/svg">
<path d="M7.0462 5.99594L11.7737 1.2684C12.0642 0.978377 12.0642 0.50754 11.7737 0.217517C11.4842 -0.0725058 11.0133 -0.0725058 10.7238 0.217517L5.9958 4.94555L1.26779 0.217529C0.978257 -0.0724938 0.507409 -0.0724938 0.217877 0.217529C-0.0726257 0.507552 -0.0726257 0.978389 0.217877 1.26841L4.9454 5.99594L0.217877 10.7235C-0.0726257 11.0135 -0.0726257 11.4843 0.217877 11.7744C0.507409 12.0644 0.978257 12.0644 1.26779 11.7744L5.99581 7.04634L10.7238 11.7744C11.0134 12.0644 11.4842 12.0644 11.7737 11.7744C12.0643 11.4843 12.0643 11.0135 11.7737 10.7235L7.0462 5.99594Z" fill="#0B4CA1"/>
</svg>
