<svg width="36" height="36" viewBox="0 0 36 36" fill="none" xmlns="http://www.w3.org/2000/svg">
<rect x="0.5" y="0.5" width="35" height="35" rx="17.5" fill="white"/>
<rect x="0.5" y="0.5" width="35" height="35" rx="17.5" stroke="white"/>
<path d="M25 11.6067V20.66C25 20.8156 24.9456 20.9556 24.8367 21.08C24.7278 21.2044 24.5878 21.2667 24.4167 21.2667C24.2456 21.2667 24.0978 21.2044 23.9733 21.08C23.8489 20.9556 23.7867 20.8156 23.7867 20.66V13.0533L12.0267 24.8133C11.9022 24.9378 11.7544 25 11.5833 25C11.4122 25 11.2722 24.9456 11.1633 24.8367C11.0544 24.7278 11 24.5878 11 24.4167C11 24.2456 11.0622 24.0978 11.1867 23.9733L22.9467 12.2133H15.34C15.1844 12.2133 15.0444 12.1511 14.92 12.0267C14.7956 11.9022 14.7333 11.7544 14.7333 11.5833C14.7333 11.4122 14.7956 11.2722 14.92 11.1633C15.0444 11.0544 15.1844 11 15.34 11H24.3933C24.58 11 24.7278 11.0544 24.8367 11.1633C24.9456 11.2722 25 11.42 25 11.6067Z" fill="#0B4CA1"/>
</svg>
