<svg width="30" height="30" viewBox="0 0 30 30" fill="none" xmlns="http://www.w3.org/2000/svg">
<path d="M25.6909 8.01818C24.8182 6.43636 23.5636 5.18182 21.9818 4.30909C20.4 3.43636 18.5455 3 15.7091 3H14.2364C11.4545 3 9.6 3.43636 8.01818 4.30909C6.43636 5.18182 5.18182 6.43636 4.30909 8.01818C3.43636 9.6 3 11.4545 3 14.2909V15.7636C3 18.5455 3.43636 20.4 4.30909 21.9818C5.18182 23.5636 6.43636 24.8182 8.01818 25.6909C9.6 26.5636 11.4545 27 14.2364 27H15.7091C18.4909 27 20.3455 26.5636 21.9273 25.6909C23.5091 24.8182 24.7636 23.5636 25.6364 21.9818C26.5091 20.4 26.9455 18.5455 26.9455 15.7636V14.2909C27 11.4545 26.5636 9.6 25.6909 8.01818ZM15 21.5455C13.8545 21.5455 12.8182 21.2727 11.8364 20.7273C14.4 19.7455 15.8727 19.0364 17.5636 15.0545C18.0545 15.4364 18.6 15.6 19.0909 15.6L17.8364 11.2364L13.4182 13.2C13.8545 13.4182 14.5091 13.6909 15.4364 14.0727C14.0727 16.6909 12 18.0545 9.21818 18.0545C8.72727 17.1273 8.45455 16.0364 8.45455 15C8.45455 11.4 11.4 8.45455 15 8.45455C18.6 8.45455 21.5455 11.4 21.5455 15C21.5455 18.6 18.6 21.5455 15 21.5455Z" fill="#23344B"/>
</svg>
