<svg width="30" height="30" viewBox="0 0 30 30" fill="none" xmlns="http://www.w3.org/2000/svg">
<path d="M5.52616 20.5027C7.41658 20.3077 9.26199 19.7827 11.2124 19.6477C16.3886 19.2577 17.2888 22.2727 22.1949 21.5677C23.4101 21.3877 26.4258 20.8777 26.2608 18.8227C25.2556 15.4927 25.1505 14.6677 23.5602 11.3827C23.1251 10.4827 22.1799 8.78769 21.5797 8.39769C20.8146 7.90269 19.5693 9.29769 19.1042 10.0327C18.9692 10.2427 18.9241 10.3177 19.1192 10.6627C19.6743 11.7727 21.2047 14.8927 19.8994 14.6677C19.4643 14.5927 19.4793 14.1127 19.1192 13.1827C18.8491 12.4327 18.5641 11.6827 18.249 10.9477C17.4088 8.98269 15.4434 4.81268 13.643 3.46268C12.1876 2.36768 10.9424 3.40268 9.90714 4.63268C7.41658 7.66269 5.36112 12.6577 3.74076 16.7977C3.0206 18.6277 3.39568 20.5477 5.52616 20.5027ZM3.35067 25.7527C5.04605 26.2777 6.27633 24.7327 9.45704 24.3277C15.3984 23.5777 17.9039 27.1027 22.1799 26.9977C23.2901 26.9827 24.3253 26.6227 25.1505 26.0677C25.8107 25.6177 26.7559 24.6577 26.9659 23.7277C27.116 22.9927 26.7559 22.3477 26.1708 22.3627C25.6907 22.3627 25.4206 22.7227 25.1955 22.9927C22.3599 26.3377 18.5641 23.5777 15.4134 22.5727C12.0826 21.5077 7.89669 21.7027 4.59595 23.1277C4.13085 23.3377 3.56072 23.5477 3.26065 23.9527C2.82556 24.5527 2.99059 25.3477 3.35067 25.7527Z" fill="#0B4CA1"/>
</svg>
