<svg width="30" height="30" viewBox="0 0 30 30" fill="none" xmlns="http://www.w3.org/2000/svg">
<path d="M11.25 13.125H1.875V9.375C1.875 8.87772 2.07254 8.40081 2.42417 8.04918C2.77581 7.69754 3.25272 7.5 3.75 7.5H7.5V5.625C7.5 5.12772 7.69754 4.65081 8.04918 4.29917C8.40081 3.94754 8.87772 3.75 9.375 3.75H18.75C19.2473 3.75 19.7242 3.94754 20.0758 4.29917C20.4275 4.65081 20.625 5.12772 20.625 5.625V7.5H24.375C24.8723 7.5 25.3492 7.69754 25.7008 8.04918C26.0525 8.40081 26.25 8.87772 26.25 9.375V13.125H16.875C16.875 12.6277 16.6775 12.1508 16.3258 11.7992C15.9742 11.4475 15.4973 11.25 15 11.25H13.125C12.6277 11.25 12.1508 11.4475 11.7992 11.7992C11.4475 12.1508 11.25 12.6277 11.25 13.125ZM11.25 15C11.25 15.4973 11.4475 15.9742 11.7992 16.3258C12.1508 16.6775 12.6277 16.875 13.125 16.875H15C15.4973 16.875 15.9742 16.6775 16.3258 16.3258C16.6775 15.9742 16.875 15.4973 16.875 15H26.25V22.5C26.25 22.9973 26.0525 23.4742 25.7008 23.8258C25.3492 24.1775 24.8723 24.375 24.375 24.375H3.75C3.25272 24.375 2.77581 24.1775 2.42417 23.8258C2.07254 23.4742 1.875 22.9973 1.875 22.5V15H11.25ZM9.375 5.625V7.5H18.75V5.625H9.375ZM13.125 13.125H15V15H13.125V13.125Z" fill="#0B4CA1"/>
</svg>
