<svg width="30" height="30" viewBox="0 0 30 30" fill="none" xmlns="http://www.w3.org/2000/svg">
<path d="M18.4711 10.1156C17.4891 9.41484 16.2937 9 15 9C11.6906 9 9 11.6906 9 15C9 16.2937 9.41484 17.4891 10.1156 18.4711L18.4711 10.1156ZM11.5289 19.8844C12.5109 20.5852 13.7063 21 15 21C18.3094 21 21 18.3094 21 15C21 13.7063 20.5852 12.5109 19.8844 11.5289L11.5289 19.8844Z" fill="#23344B"/>
<path d="M24 3H6C4.34297 3 3 4.34297 3 6V24C3 25.657 4.34297 27 6 27H24C25.657 27 27 25.657 27 24V6C27 4.34297 25.657 3 24 3ZM15 22.9992C10.582 22.9992 7.00078 19.418 7.00078 15C7.00078 10.582 10.582 7.00078 15 7.00078C19.418 7.00078 22.9992 10.582 22.9992 15C22.9992 19.418 19.418 22.9992 15 22.9992Z" fill="#23344B"/>
</svg>
