<svg width="30" height="30" viewBox="0 0 30 30" fill="none" xmlns="http://www.w3.org/2000/svg">
<path d="M25.57 26.9674H18.142C17.9547 26.9677 17.7693 26.9311 17.5961 26.8597C17.423 26.7882 17.2657 26.6834 17.1331 26.5512C17.0005 26.419 16.8952 26.2619 16.8233 26.089C16.7514 25.9161 16.7143 25.7307 16.714 25.5434V24.9734C16.714 24.1854 17.354 23.5474 18.142 23.5474H25.57C26.36 23.5474 27 24.1854 27 24.9734V25.5434C27 26.3294 26.36 26.9674 25.57 26.9674ZM25.57 20.1274H18.142C17.9546 20.1277 17.7689 20.091 17.5957 20.0195C17.4224 19.9479 17.265 19.8429 17.1324 19.7105C16.9997 19.578 16.8945 19.4207 16.8227 19.2476C16.751 19.0745 16.714 18.8889 16.714 18.7014V18.1314C16.714 17.3434 17.354 16.7054 18.142 16.7054H25.57C26.36 16.7054 27 17.3454 27 18.1314V18.7014C27 19.4894 26.36 20.1274 25.57 20.1274ZM25.57 13.2874H18.142C17.9546 13.2877 17.7689 13.251 17.5957 13.1795C17.4224 13.1079 17.265 13.0029 17.1324 12.8705C16.9997 12.738 16.8945 12.5807 16.8227 12.4076C16.751 12.2345 16.714 12.0489 16.714 11.8614V11.2914C16.714 10.5034 17.354 9.86544 18.142 9.86544H25.57C26.36 9.86544 27 10.5034 27 11.2914V11.8614C27 12.6474 26.36 13.2854 25.57 13.2854V13.2874ZM25.57 6.44544H18.142C17.9546 6.4457 17.7689 6.40901 17.5957 6.33746C17.4224 6.26592 17.265 6.16092 17.1324 6.02848C16.9997 5.89604 16.8945 5.73875 16.8227 5.56561C16.751 5.39247 16.714 5.20687 16.714 5.01944V4.44944C16.714 3.66344 17.354 3.02344 18.142 3.02344H25.57C26.36 3.02344 27 3.66344 27 4.44944V5.01944C27 5.80744 26.36 6.44544 25.57 6.44544ZM11.856 26.9674H4.428C4.24074 26.9677 4.05525 26.9311 3.88214 26.8597C3.70903 26.7882 3.55168 26.6834 3.41908 26.5512C3.28648 26.419 3.18122 26.2619 3.10931 26.089C3.03741 25.9161 3.00026 25.7307 3 25.5434V18.1314C3 17.3434 3.64 16.7054 4.428 16.7054H11.856C12.646 16.7054 13.286 17.3454 13.286 18.1314V25.5434C13.286 26.3294 12.646 26.9674 11.856 26.9674ZM11.856 13.2874H4.428C4.24057 13.2877 4.05492 13.251 3.88168 13.1795C3.70844 13.1079 3.551 13.0029 3.41837 12.8705C3.28574 12.738 3.18053 12.5807 3.10874 12.4076C3.03695 12.2345 3 12.0489 3 11.8614V4.44944C3 3.66344 3.64 3.02344 4.428 3.02344H11.856C12.646 3.02344 13.286 3.66344 13.286 4.44944V11.8614C13.286 12.6474 12.646 13.2854 11.856 13.2854V13.2874Z" fill="#0B4CA1"/>
</svg>
