<svg width="38" height="38" viewBox="0 0 38 38" fill="none" xmlns="http://www.w3.org/2000/svg">
<g clip-path="url(#clip0_656_2036)">
<rect width="38" height="38" rx="12" fill="#0B4CA1"/>
<path d="M23.3763 10C21.2151 10 19.667 11.9557 18.9998 12.99C18.3319 11.9557 16.7845 10 14.6233 10C11.5222 10 9 12.8064 9 16.2557C9 17.8686 10.0894 20.1808 11.4118 21.3909C13.2411 23.7512 18.3839 28 19.0188 28C19.6649 28 24.6973 23.8337 26.5597 21.4192C27.9053 20.1879 29 17.8725 29 16.2557C29 12.8064 26.4774 10 23.3763 10ZM27.674 16.2557C27.674 17.5456 26.7425 19.4705 25.6401 20.4589C25.6099 20.4865 25.5825 20.5169 25.555 20.5501C23.9162 22.6943 20.6168 25.3539 19.0223 26.5188C17.837 25.6475 14.2669 22.9329 12.434 20.5416C12.4094 20.5091 12.3806 20.4787 12.3504 20.4505C11.2522 19.4635 10.3256 17.5435 10.3256 16.2557C10.3256 13.5403 12.2533 11.3308 14.6233 11.3308C16.1511 11.3308 17.6218 12.9914 18.4016 14.6378C18.5049 14.856 18.7341 14.9919 18.9998 14.9919C19.2656 14.9919 19.4948 14.856 19.5988 14.6378C20.3778 12.9914 21.8479 11.3308 23.3763 11.3308C25.7462 11.3308 27.674 13.5403 27.674 16.2557Z" fill="white"/>
<path d="M27.674 16.2557C27.674 17.5456 26.7425 19.4705 25.6401 20.4589C25.6099 20.4865 25.5825 20.5169 25.555 20.5501C23.9162 22.6943 20.6168 25.3539 19.0223 26.5188C17.837 25.6475 14.2669 22.9329 12.434 20.5416C12.4094 20.5091 12.3806 20.4787 12.3504 20.4505C11.2522 19.4635 10.3256 17.5435 10.3256 16.2557C10.3256 13.5403 12.2533 11.3308 14.6233 11.3308C16.1511 11.3308 17.6218 12.9914 18.4016 14.6378C18.5049 14.856 18.7341 14.9919 18.9998 14.9919C19.2656 14.9919 19.4948 14.856 19.5988 14.6378C20.3778 12.9914 21.8479 11.3308 23.3763 11.3308C25.7462 11.3308 27.674 13.5403 27.674 16.2557Z" fill="white"/>
</g>
<defs>
<clipPath id="clip0_656_2036">
<rect width="38" height="38" fill="white"/>
</clipPath>
</defs>
</svg>
