<svg preserveAspectRatio="none" width="100%" height="100%" overflow="visible" style="display: block;" viewBox="0 0 17.0721 17.0721" fill="none" xmlns="http://www.w3.org/2000/svg">
<path id="Vector" d="M14.3014 17.0721H2.77121C1.2429 17.0721 -1.95312e-10 15.8292 0 14.3014V2.77069C0 1.2429 1.2429 -1.95312e-10 2.77121 0H10.5382C10.9522 0 11.288 0.335795 11.288 0.749753C11.288 1.16371 10.9522 1.49951 10.5382 1.49951H2.77121C2.07031 1.49951 1.50002 2.06979 1.50002 2.77069V14.3014C1.50002 15.0023 2.07031 15.5726 2.77121 15.5726H14.3014C15.0023 15.5726 15.5726 15.0023 15.5726 14.3014V8.3018C15.5726 7.88732 15.9083 7.55204 16.3223 7.55204C16.7363 7.55204 17.0721 7.88784 17.0721 8.3018V14.3009C17.0726 15.8292 15.8297 17.0721 14.3014 17.0721Z" fill="var(--fill-0, white)"/>
</svg>
