<svg width="24" height="24" viewBox="0 0 24 24" fill="none" xmlns="http://www.w3.org/2000/svg">
<path d="M16.4717 4.69727C16.9144 4.52581 17.3931 4.59326 17.7627 4.87109L17.9141 5.00293C18.2977 5.38658 18.4155 5.9397 18.2197 6.44531L12.373 21.5508C12.1708 22.0774 11.6766 22.4159 11.1143 22.416H11.1055C10.5388 22.4117 10.0468 22.0671 9.84863 21.5361L7.56445 15.4092L7.54785 15.3662L7.50586 15.3506L1.37891 13.0664C0.847913 12.8683 0.502418 12.3762 0.498047 11.8096C0.493835 11.2431 0.832616 10.7465 1.36133 10.542L16.4717 4.69727ZM16.6123 6.1709L2.31152 11.7031L2.06641 11.7979L2.31348 11.8896L8.07812 14.041C8.44633 14.1778 8.73515 14.4684 8.87207 14.835L11.0225 20.5996L11.1143 20.8457L11.209 20.6006L16.7412 6.30078L16.8232 6.08984L16.6123 6.1709Z" fill="#165DFF" stroke="white" stroke-width="0.2"/>
</svg>
