<svg width="28" height="28" viewBox="0 0 28 28" fill="none" xmlns="http://www.w3.org/2000/svg">
<path d="M23.1598 25.4751H20.0715L19.4257 24.2203H8.36688L7.72041 25.4751H4.63281L7.7921 20.8848C7.16998 20.6973 6.6592 20.3209 6.26047 19.7562C5.86173 19.1923 5.66202 18.5423 5.66202 17.8069V7.19052C5.66202 6.74623 5.76987 6.32236 5.98491 5.92037C6.20062 5.51839 6.46367 5.15071 6.77543 4.81731C7.08648 4.48391 7.40518 4.19792 7.73225 3.95791C8.05999 3.71861 8.34324 3.53915 8.58262 3.41949C8.822 3.29985 9.08502 3.17145 9.37245 3.03428C9.65983 2.89785 10.0029 2.77821 10.4017 2.67534C10.8004 2.57248 11.2631 2.48712 11.7899 2.41927C12.3167 2.35069 12.9311 2.31641 13.6333 2.31641C14.4308 2.31641 15.1329 2.35507 15.739 2.43166C16.3458 2.50901 16.8767 2.61114 17.3312 2.73952C17.7863 2.86792 18.185 3.0131 18.5281 3.17581C18.8711 3.33776 19.1864 3.50483 19.4738 3.67627C19.7605 3.84699 20.0639 4.04322 20.3826 4.26575C20.702 4.48825 20.9894 4.74067 21.2447 5.02302C21.5002 5.30534 21.7117 5.62564 21.8794 5.98457C22.0464 6.34351 22.1306 6.74623 22.1306 7.19052V17.8069C22.1306 18.5423 21.9267 19.1923 21.5196 19.7562C21.1132 20.3209 20.5983 20.6973 19.9762 20.8848L23.1598 25.4751ZM11.6458 3.98343C11.4385 3.98343 11.2631 4.06075 11.1198 4.21469C10.9757 4.36863 10.904 4.56487 10.904 4.8049C10.904 5.02669 10.9757 5.21491 11.1198 5.36885C11.2631 5.5228 11.4385 5.60012 11.6458 5.60012H16.1941C16.4015 5.60012 16.5768 5.5228 16.7209 5.36885C16.8642 5.21491 16.9359 5.02669 16.9359 4.8049C16.9359 4.56487 16.8642 4.36863 16.7209 4.21469C16.5768 4.06075 16.4014 3.98343 16.1941 3.98343H11.6458ZM7.14632 12.0135H20.6226V7.19052H7.14632V12.0135ZM7.91248 19.7307C8.19919 19.7307 8.44691 19.6198 8.65429 19.3973C8.86166 19.1748 8.96533 18.9099 8.96533 18.6021C8.96533 18.2774 8.86166 18.0031 8.65429 17.7813C8.44691 17.5588 8.19919 17.4479 7.91248 17.4479C7.60908 17.4479 7.3537 17.5588 7.14632 17.7813C6.93894 18.0031 6.83456 18.2774 6.83456 18.6021C6.83456 18.9099 6.93894 19.1748 7.14632 19.3973C7.3537 19.6198 7.60908 19.7307 7.91248 19.7307ZM18.7313 22.6299L18.0611 21.0132H9.73149L9.03702 22.6299H18.7313ZM18.8029 18.6021C18.8029 18.9099 18.9066 19.1748 19.1146 19.3973C19.3221 19.6198 19.5774 19.7307 19.8801 19.7307C20.1835 19.7307 20.4389 19.6198 20.6463 19.3973C20.8537 19.1748 20.9573 18.9099 20.9573 18.6021C20.9573 18.2774 20.8537 18.0031 20.6463 17.7813C20.4389 17.5588 20.1835 17.4479 19.8801 17.4479C19.5774 17.4479 19.3221 17.5588 19.1146 17.7813C18.9066 18.0031 18.8029 18.2774 18.8029 18.6021Z" fill="#165DFF"/>
</svg>
