<svg preserveAspectRatio="none" width="100%" height="100%" overflow="visible" style="display: block;" viewBox="0 0 20 20" fill="none" xmlns="http://www.w3.org/2000/svg">
<g id="Frame">
<path id="Vector" d="M14.1176 2C14.5857 2 15.0345 2.19451 15.3655 2.54073C15.6964 2.88695 15.8824 3.35652 15.8824 3.84615V6.432L18.5753 4.74585C18.692 4.67275 18.8224 4.62698 18.9576 4.61169L19.0588 4.60615C19.3084 4.60615 19.5478 4.70989 19.7243 4.89454C19.9008 5.07919 20 5.32963 20 5.59077V14.4252C19.9999 14.5995 19.9556 14.7707 19.8716 14.9212C19.7875 15.0717 19.6668 15.1962 19.5218 15.2819C19.3767 15.3677 19.2125 15.4116 19.0459 15.4092C18.8793 15.4068 18.7163 15.3582 18.5735 15.2683L15.8824 13.5742V16.1538C15.8824 16.6435 15.6964 17.1131 15.3655 17.4593C15.0345 17.8055 14.5857 18 14.1176 18H1.76471C1.29668 18 0.847817 17.8055 0.51687 17.4593C0.185924 17.1131 0 16.6435 0 16.1538V3.84615C0 3.35652 0.185924 2.88695 0.51687 2.54073C0.847817 2.19451 1.29668 2 1.76471 2H14.1176ZM4.96824 6.76923H3.24824L7.53765 13.2308H9.12294L9.12235 10.8689L9.50882 10.8695L10.8982 13.2308H12.6282L10.8518 10.4554L10.9918 10.3692C11.0876 10.3052 11.1794 10.2345 11.2671 10.1569C11.4488 9.99692 11.5947 9.80246 11.7041 9.57415C11.8159 9.34215 11.8712 9.07323 11.8712 8.768C11.8712 8.10338 11.6629 7.59508 11.2459 7.25908C10.8659 6.95385 10.3059 6.79385 9.56647 6.77292L9.39765 6.77046L9.14353 6.76923H7.46706V10.5342L4.96824 6.76923ZM8.82882 7.83877H9.30529C9.72823 7.83877 10.0471 7.90646 10.2653 8.048C10.5024 8.20123 10.6212 8.46031 10.6212 8.80308C10.6212 9.09354 10.5359 9.32985 10.3612 9.50461L10.2912 9.56738L10.2206 9.61785C10.04 9.73169 9.79 9.79323 9.47118 9.80677L9.33 9.80985H8.82882V7.83877Z" fill="var(--fill-0, white)"/>
</g>
</svg>
