<svg width="16" height="16" viewBox="0 0 16 16" fill="none" xmlns="http://www.w3.org/2000/svg">
<path d="M6.85887 14.4746C6.85887 14.7648 6.6231 15 6.3322 15H4.76974C3.61596 15 2.68061 14.067 2.68061 12.9161V8.73079H1.84268C1.38192 8.73079 1.00755 8.36195 1.00011 7.90413L1 7.89022C1 7.67172 1.0853 7.4618 1.23783 7.30496L1.24525 7.29741L7.19103 1.3355C7.63104 0.894269 8.3436 0.888017 8.79132 1.31812L8.80482 1.33129L14.7547 7.29741C15.083 7.62653 15.0816 8.15875 14.7516 8.48615C14.5963 8.64026 14.387 8.72798 14.1679 8.73073L14.1573 8.73079H13.3369V12.8986C13.3369 14.038 12.4202 14.9638 11.2824 14.9822L11.2478 14.9825H9.68536C9.3974 14.9825 9.16341 14.752 9.15876 14.4658L9.15869 14.4571L9.15867 13.8617H9.14112V9.95661H6.85887V14.4746Z" fill="white"/>
</svg>
