<svg preserveAspectRatio="none" width="100%" height="100%" overflow="visible" style="display: block;" viewBox="0 0 20 18" fill="none" xmlns="http://www.w3.org/2000/svg">
<path id="Vector" d="M14.3763 0C12.2151 0 10.667 1.95566 9.99982 2.99001C9.3319 1.95566 7.78449 0 5.62335 0C2.52216 0 0 2.80644 0 6.25567C0 7.86856 1.08939 10.1808 2.41181 11.3909C4.24114 13.7511 9.38392 18 10.0188 18C10.6649 18 15.6973 13.8337 17.5597 11.4192C18.9053 10.1879 20 7.87245 20 6.25567C20 2.80641 17.4774 0 14.3763 0ZM18.674 6.25567C18.674 7.54559 17.7425 9.47054 16.6401 10.4589C16.6099 10.4865 16.5825 10.5169 16.555 10.5501C14.9162 12.6943 11.6168 15.3539 10.0223 16.5188C8.83697 15.6475 5.26687 12.9329 3.43404 10.5416C3.40943 10.5091 3.38061 10.4787 3.3504 10.4505C2.25219 9.46347 1.32562 7.54346 1.32562 6.25567C1.32562 3.54032 3.25334 1.33085 5.62335 1.33085C7.15105 1.33085 8.62185 2.9914 9.40156 4.63783C9.50488 4.856 9.73409 4.99188 9.99984 4.99188C10.2656 4.99188 10.4948 4.85597 10.5988 4.63783C11.3778 2.9914 12.8479 1.33085 14.3763 1.33085C16.7462 1.33085 18.674 3.54032 18.674 6.25567Z" fill="var(--fill-0, white)"/>
</svg>
