<svg width="38" height="38" viewBox="0 0 38 38" fill="none" xmlns="http://www.w3.org/2000/svg">
<g clip-path="url(#clip0_656_2041)">
<path d="M0 12C0 5.37258 5.37258 0 12 0H26C32.6274 0 38 5.37258 38 12V26C38 32.6274 32.6274 38 26 38H12C5.37258 38 0 32.6274 0 26V12Z" fill="#0B4CA1"/>
<path d="M24.4303 27.617H12.9001C11.3718 27.617 10.1289 26.3741 10.1289 24.8463V13.3156C10.1289 11.7878 11.3718 10.5449 12.9001 10.5449H20.6671C21.0811 10.5449 21.4169 10.8807 21.4169 11.2947C21.4169 11.7086 21.0811 12.0444 20.6671 12.0444H12.9001C12.1992 12.0444 11.6289 12.6147 11.6289 13.3156V24.8463C11.6289 25.5472 12.1992 26.1175 12.9001 26.1175H24.4303C25.1312 26.1175 25.7015 25.5472 25.7015 24.8463V18.8467C25.7015 18.4322 26.0373 18.097 26.4512 18.097C26.8652 18.097 27.201 18.4328 27.201 18.8467V24.8458C27.2015 26.3741 25.9586 27.617 24.4303 27.617Z" fill="white"/>
<path d="M17.199 24.2754C16.785 24.2754 16.4492 23.9396 16.4492 23.5256V22.5578C16.4492 17.9035 20.2355 14.1172 24.8893 14.1172H28.9868C29.4007 14.1172 29.7365 14.453 29.7365 14.8669C29.7365 15.2809 29.4007 15.6167 28.9868 15.6167H24.8893C21.0624 15.6167 17.9487 18.7304 17.9487 22.5573V23.5251C17.9487 23.9401 17.6129 24.2754 17.199 24.2754Z" fill="white"/>
<path d="M29.1278 15.5344C28.9509 15.5344 28.7735 15.4722 28.6311 15.3457L24.5727 11.7461C24.2626 11.4715 24.2344 10.9974 24.5095 10.6878C24.7841 10.3782 25.2582 10.3494 25.5678 10.6245L29.6261 14.2242C29.9362 14.4988 29.9645 14.9729 29.6894 15.2825C29.5418 15.4491 29.3351 15.5344 29.1278 15.5344Z" fill="white"/>
</g>
<defs>
<clipPath id="clip0_656_2041">
<rect width="38" height="38" fill="white"/>
</clipPath>
</defs>
</svg>
